<svg id="Layer_2" data-name="Layer 2" xmlns="http://www.w3.org/2000/svg" viewBox="0 0 1920 1080"><defs><style>.cls-1{fill:#3ac7bb;}.cls-2,.cls-3{fill:none;stroke:#0e0e0e;stroke-miterlimit:10;}.cls-2{stroke-width:9px;}.cls-3{stroke-width:15px;}.cls-4{fill:#fff;}.cls-5{fill:#0e0e0e;}</style></defs><title>Artboard 1</title><polygon class="cls-1" points="1106.37 746.48 1090.4 722.08 1119.52 720.45 1106.37 746.48"/><polygon class="cls-1" points="1720.16 600.76 1696.72 618.11 1693.41 589.14 1720.16 600.76"/><polygon class="cls-1" points="107.51 170.61 88.88 172.72 96.37 155.53 107.51 170.61"/><polygon class="cls-1" points="719.26 366.13 701.66 372.61 704.84 354.13 719.26 366.13"/><polygon class="cls-1" points="874.26 1016.13 856.66 1022.61 859.84 1004.13 874.26 1016.13"/><polygon class="cls-1" points="1187.26 406.13 1169.66 412.61 1172.84 394.13 1187.26 406.13"/><polygon class="cls-2" points="396.29 540.2 372.47 526.45 396.29 512.7 396.29 540.2"/><polygon class="cls-3" points="1750.09 765.45 1791.82 730.21 1801.47 783.97 1750.09 765.45"/><path class="cls-1" d="M1006.75,202.9l11.73,43.76-43.76-11.73,32-32m12.94-48.29-93.26,93.26L1053.83,282l-34.14-127.4Z"/><path class="cls-1" d="M577.88,882.54l8.09,14H569.79l8.09-14m0-18-23.68,41h47.36l-23.68-41Z"/><path class="cls-1" d="M1266.6,908.94l3.66,15.76L1254.78,920l11.82-11m5.23-17.22-34.58,32.35,45.3,13.78-10.72-46.13Z"/><path class="cls-1" d="M162.44,955l2.16,9.28-9.12-2.77,7-6.51m3.09-10.15L145.15,964l26.69,8.12-6.31-27.18Z"/><path class="cls-1" d="M1822,152.39l1.61,6.91-6.79-2.07,5.18-4.84m2.3-7.56L1809.16,159l19.87,6-4.7-20.23Z"/><path class="cls-1" d="M536.6,191.94l3.66,15.76L524.78,203l11.82-11.05m5.23-17.22-34.58,32.35,45.3,13.78-10.72-46.13Z"/><polygon class="cls-1" points="416.27 715.19 442.08 730.1 416.27 745 416.27 715.19"/><polygon class="cls-4" points="415.8 501.23 356.94 452.24 428.8 425.76 415.8 501.23"/><polygon class="cls-4" points="1140.76 668.4 1118.94 650.24 1145.58 640.42 1140.76 668.4"/><polygon class="cls-4" points="917.88 904.74 915.95 876.41 941.44 888.91 917.88 904.74"/><polygon class="cls-4" points="1562.14 602.75 1575.23 541.01 1622.16 583.22 1562.14 602.75"/><polygon class="cls-4" points="1156.68 545.56 1200 446.1 1264.47 533.35 1156.68 545.56"/><polygon class="cls-4" points="631.47 596.21 693.31 454.23 785.35 578.78 631.47 596.21"/><polygon class="cls-4" points="305.55 692.03 374.79 692.03 340.17 751.99 305.55 692.03"/><polygon class="cls-5" points="1535.47 318.83 1517.94 304.24 1539.34 296.35 1535.47 318.83"/><polygon class="cls-5" points="235.99 834.73 213.32 837.3 222.43 816.39 235.99 834.73"/><polygon class="cls-5" points="1628.41 1005.12 1613.44 1003.81 1622.05 991.51 1628.41 1005.12"/><polygon class="cls-5" points="730.41 592.12 715.44 590.81 724.05 578.51 730.41 592.12"/><polygon class="cls-5" points="1264.85 543.62 1250.75 548.81 1253.3 534.01 1264.85 543.62"/><polygon class="cls-5" points="363.52 374.63 358.84 360.36 373.54 363.44 363.52 374.63"/><polygon class="cls-5" points="1055.4 918.08 1015.59 905.98 1045.98 877.55 1055.4 918.08"/></svg>