<svg id="Layer_1" data-name="Layer 1" xmlns="http://www.w3.org/2000/svg" xmlns:xlink="http://www.w3.org/1999/xlink" viewBox="0 0 492.83 96"><defs><style>.cls-1,.cls-2,.cls-3{fill:none;}.cls-2{stroke:#3ac7bb;}.cls-2,.cls-3{stroke-width:2.88px;}.cls-3{stroke:#0e0e0e;}.cls-10,.cls-12,.cls-4,.cls-6{font-size:97.15px;font-family:AXIS-ExtraBold, AXIS;font-weight:700;}.cls-4,.cls-6,.cls-8{fill:#0e0e0e;}.cls-12,.cls-4{letter-spacing:0.28em;}.cls-5{fill:url(#_10_lpi_40_2);}.cls-10,.cls-6{letter-spacing:0.28em;}.cls-7{fill:url(#_10_lpi_40_2-7);}.cls-9{fill:url(#_10_lpi_40_2-9);}.cls-10,.cls-12{fill:#3ac7bb;}.cls-11{fill:url(#_10_lpi_40_);}.cls-13{fill:url(#_10_lpi_40_5);}</style><pattern id="_10_lpi_40_2" data-name="10 lpi 40% 2" width="72" height="72" patternTransform="translate(12.75 90.17) rotate(-45) scale(0.8 0.74)" patternUnits="userSpaceOnUse" viewBox="0 0 72 72"><rect class="cls-1" width="72" height="72"/><line class="cls-3" x1="71.75" y1="68.4" x2="144.25" y2="68.4"/><line class="cls-3" x1="71.75" y1="54" x2="144.25" y2="54"/><line class="cls-3" x1="71.75" y1="39.6" x2="144.25" y2="39.6"/><line class="cls-3" x1="71.75" y1="25.2" x2="144.25" y2="25.2"/><line class="cls-3" x1="71.75" y1="10.8" x2="144.25" y2="10.8"/><line class="cls-3" x1="71.75" y1="61.2" x2="144.25" y2="61.2"/><line class="cls-3" x1="71.75" y1="46.8" x2="144.25" y2="46.8"/><line class="cls-3" x1="71.75" y1="32.4" x2="144.25" y2="32.4"/><line class="cls-3" x1="71.75" y1="18" x2="144.25" y2="18"/><line class="cls-3" x1="71.75" y1="3.6" x2="144.25" y2="3.6"/><line class="cls-3" x1="-0.25" y1="68.4" x2="72.25" y2="68.4"/><line class="cls-3" x1="-0.25" y1="54" x2="72.25" y2="54"/><line class="cls-3" x1="-0.25" y1="39.6" x2="72.25" y2="39.6"/><line class="cls-3" x1="-0.25" y1="25.2" x2="72.25" y2="25.2"/><line class="cls-3" x1="-0.25" y1="10.8" x2="72.25" y2="10.8"/><line class="cls-3" x1="-0.25" y1="61.2" x2="72.25" y2="61.2"/><line class="cls-3" x1="-0.25" y1="46.8" x2="72.25" y2="46.8"/><line class="cls-3" x1="-0.25" y1="32.4" x2="72.25" y2="32.4"/><line class="cls-3" x1="-0.25" y1="18" x2="72.25" y2="18"/><line class="cls-3" x1="-0.25" y1="3.6" x2="72.25" y2="3.6"/><line class="cls-3" x1="-72.25" y1="68.4" x2="0.25" y2="68.4"/><line class="cls-3" x1="-72.25" y1="54" x2="0.25" y2="54"/><line class="cls-3" x1="-72.25" y1="39.6" x2="0.25" y2="39.6"/><line class="cls-3" x1="-72.25" y1="25.2" x2="0.25" y2="25.2"/><line class="cls-3" x1="-72.25" y1="10.8" x2="0.25" y2="10.8"/><line class="cls-3" x1="-72.25" y1="61.2" x2="0.25" y2="61.2"/><line class="cls-3" x1="-72.25" y1="46.8" x2="0.25" y2="46.8"/><line class="cls-3" x1="-72.25" y1="32.4" x2="0.25" y2="32.4"/><line class="cls-3" x1="-72.25" y1="18" x2="0.25" y2="18"/><line class="cls-3" x1="-72.25" y1="3.6" x2="0.25" y2="3.6"/></pattern><pattern id="_10_lpi_40_2-7" data-name="10 lpi 40% 2" width="72" height="72" patternTransform="translate(8.31 31.18) rotate(-45) scale(0.8 0.74)" patternUnits="userSpaceOnUse" viewBox="0 0 72 72"><rect class="cls-1" width="72" height="72"/><line class="cls-3" x1="71.75" y1="68.4" x2="144.25" y2="68.4"/><line class="cls-3" x1="71.75" y1="54" x2="144.25" y2="54"/><line class="cls-3" x1="71.75" y1="39.6" x2="144.25" y2="39.6"/><line class="cls-3" x1="71.75" y1="25.2" x2="144.25" y2="25.2"/><line class="cls-3" x1="71.75" y1="10.8" x2="144.25" y2="10.8"/><line class="cls-3" x1="71.75" y1="61.2" x2="144.25" y2="61.2"/><line class="cls-3" x1="71.75" y1="46.8" x2="144.25" y2="46.8"/><line class="cls-3" x1="71.75" y1="32.4" x2="144.25" y2="32.4"/><line class="cls-3" x1="71.75" y1="18" x2="144.25" y2="18"/><line class="cls-3" x1="71.75" y1="3.6" x2="144.25" y2="3.6"/><line class="cls-3" x1="-0.25" y1="68.4" x2="72.25" y2="68.4"/><line class="cls-3" x1="-0.25" y1="54" x2="72.25" y2="54"/><line class="cls-3" x1="-0.25" y1="39.6" x2="72.25" y2="39.6"/><line class="cls-3" x1="-0.25" y1="25.2" x2="72.25" y2="25.2"/><line class="cls-3" x1="-0.25" y1="10.8" x2="72.25" y2="10.8"/><line class="cls-3" x1="-0.25" y1="61.2" x2="72.25" y2="61.2"/><line class="cls-3" x1="-0.25" y1="46.8" x2="72.25" y2="46.8"/><line class="cls-3" x1="-0.25" y1="32.4" x2="72.25" y2="32.4"/><line class="cls-3" x1="-0.25" y1="18" x2="72.25" y2="18"/><line class="cls-3" x1="-0.25" y1="3.6" x2="72.25" y2="3.6"/><line class="cls-3" x1="-72.25" y1="68.4" x2="0.25" y2="68.4"/><line class="cls-3" x1="-72.25" y1="54" x2="0.25" y2="54"/><line class="cls-3" x1="-72.25" y1="39.6" x2="0.25" y2="39.6"/><line class="cls-3" x1="-72.25" y1="25.2" x2="0.25" y2="25.2"/><line class="cls-3" x1="-72.25" y1="10.8" x2="0.25" y2="10.8"/><line class="cls-3" x1="-72.25" y1="61.2" x2="0.25" y2="61.2"/><line class="cls-3" x1="-72.25" y1="46.8" x2="0.25" y2="46.8"/><line class="cls-3" x1="-72.25" y1="32.4" x2="0.25" y2="32.4"/><line class="cls-3" x1="-72.25" y1="18" x2="0.25" y2="18"/><line class="cls-3" x1="-72.25" y1="3.6" x2="0.25" y2="3.6"/></pattern><pattern id="_10_lpi_40_2-9" data-name="10 lpi 40% 2" width="72" height="72" patternTransform="translate(34.32 33.88) rotate(-45) scale(0.8 0.74)" patternUnits="userSpaceOnUse" viewBox="0 0 72 72"><rect class="cls-1" width="72" height="72"/><line class="cls-3" x1="71.75" y1="68.4" x2="144.25" y2="68.4"/><line class="cls-3" x1="71.75" y1="54" x2="144.25" y2="54"/><line class="cls-3" x1="71.75" y1="39.6" x2="144.25" y2="39.6"/><line class="cls-3" x1="71.75" y1="25.2" x2="144.25" y2="25.2"/><line class="cls-3" x1="71.75" y1="10.8" x2="144.25" y2="10.8"/><line class="cls-3" x1="71.75" y1="61.2" x2="144.25" y2="61.2"/><line class="cls-3" x1="71.75" y1="46.8" x2="144.25" y2="46.8"/><line class="cls-3" x1="71.75" y1="32.4" x2="144.25" y2="32.4"/><line class="cls-3" x1="71.75" y1="18" x2="144.25" y2="18"/><line class="cls-3" x1="71.75" y1="3.6" x2="144.25" y2="3.6"/><line class="cls-3" x1="-0.25" y1="68.4" x2="72.25" y2="68.4"/><line class="cls-3" x1="-0.25" y1="54" x2="72.25" y2="54"/><line class="cls-3" x1="-0.25" y1="39.6" x2="72.25" y2="39.6"/><line class="cls-3" x1="-0.25" y1="25.2" x2="72.25" y2="25.2"/><line class="cls-3" x1="-0.25" y1="10.8" x2="72.25" y2="10.8"/><line class="cls-3" x1="-0.25" y1="61.2" x2="72.25" y2="61.2"/><line class="cls-3" x1="-0.25" y1="46.8" x2="72.25" y2="46.8"/><line class="cls-3" x1="-0.25" y1="32.4" x2="72.25" y2="32.4"/><line class="cls-3" x1="-0.25" y1="18" x2="72.25" y2="18"/><line class="cls-3" x1="-0.25" y1="3.6" x2="72.25" y2="3.6"/><line class="cls-3" x1="-72.25" y1="68.4" x2="0.25" y2="68.4"/><line class="cls-3" x1="-72.25" y1="54" x2="0.25" y2="54"/><line class="cls-3" x1="-72.25" y1="39.6" x2="0.25" y2="39.6"/><line class="cls-3" x1="-72.25" y1="25.2" x2="0.25" y2="25.2"/><line class="cls-3" x1="-72.25" y1="10.8" x2="0.25" y2="10.8"/><line class="cls-3" x1="-72.25" y1="61.2" x2="0.25" y2="61.2"/><line class="cls-3" x1="-72.25" y1="46.8" x2="0.25" y2="46.8"/><line class="cls-3" x1="-72.25" y1="32.4" x2="0.25" y2="32.4"/><line class="cls-3" x1="-72.25" y1="18" x2="0.25" y2="18"/><line class="cls-3" x1="-72.25" y1="3.6" x2="0.25" y2="3.6"/></pattern><pattern id="_10_lpi_40_" data-name="10 lpi 40%" width="72" height="72" patternTransform="translate(59.73 -22.52) rotate(-45) scale(0.8 0.74)" patternUnits="userSpaceOnUse" viewBox="0 0 72 72"><rect class="cls-1" width="72" height="72"/><line class="cls-2" x1="71.75" y1="68.4" x2="144.25" y2="68.4"/><line class="cls-2" x1="71.75" y1="54" x2="144.25" y2="54"/><line class="cls-2" x1="71.75" y1="39.6" x2="144.25" y2="39.6"/><line class="cls-2" x1="71.75" y1="25.2" x2="144.25" y2="25.2"/><line class="cls-2" x1="71.75" y1="10.8" x2="144.25" y2="10.8"/><line class="cls-2" x1="71.75" y1="61.2" x2="144.25" y2="61.2"/><line class="cls-2" x1="71.75" y1="46.8" x2="144.25" y2="46.8"/><line class="cls-2" x1="71.75" y1="32.4" x2="144.25" y2="32.4"/><line class="cls-2" x1="71.75" y1="18" x2="144.25" y2="18"/><line class="cls-2" x1="71.75" y1="3.6" x2="144.25" y2="3.6"/><line class="cls-2" x1="-0.25" y1="68.4" x2="72.25" y2="68.4"/><line class="cls-2" x1="-0.25" y1="54" x2="72.25" y2="54"/><line class="cls-2" x1="-0.25" y1="39.6" x2="72.25" y2="39.6"/><line class="cls-2" x1="-0.25" y1="25.2" x2="72.25" y2="25.2"/><line class="cls-2" x1="-0.25" y1="10.8" x2="72.25" y2="10.8"/><line class="cls-2" x1="-0.25" y1="61.2" x2="72.25" y2="61.2"/><line class="cls-2" x1="-0.25" y1="46.8" x2="72.25" y2="46.8"/><line class="cls-2" x1="-0.25" y1="32.4" x2="72.25" y2="32.4"/><line class="cls-2" x1="-0.25" y1="18" x2="72.25" y2="18"/><line class="cls-2" x1="-0.25" y1="3.6" x2="72.25" y2="3.6"/><line class="cls-2" x1="-72.25" y1="68.4" x2="0.25" y2="68.4"/><line class="cls-2" x1="-72.25" y1="54" x2="0.25" y2="54"/><line class="cls-2" x1="-72.25" y1="39.6" x2="0.25" y2="39.6"/><line class="cls-2" x1="-72.25" y1="25.2" x2="0.25" y2="25.2"/><line class="cls-2" x1="-72.25" y1="10.8" x2="0.25" y2="10.8"/><line class="cls-2" x1="-72.25" y1="61.2" x2="0.25" y2="61.2"/><line class="cls-2" x1="-72.25" y1="46.8" x2="0.25" y2="46.8"/><line class="cls-2" x1="-72.25" y1="32.4" x2="0.25" y2="32.4"/><line class="cls-2" x1="-72.25" y1="18" x2="0.25" y2="18"/><line class="cls-2" x1="-72.25" y1="3.6" x2="0.25" y2="3.6"/></pattern><pattern id="_10_lpi_40_5" data-name="10 lpi 40%" width="72" height="72" patternTransform="translate(60.2 45.29) rotate(-45) scale(0.8 0.74)" patternUnits="userSpaceOnUse" viewBox="0 0 72 72"><rect class="cls-1" width="72" height="72"/><line class="cls-2" x1="71.75" y1="68.4" x2="144.25" y2="68.4"/><line class="cls-2" x1="71.75" y1="54" x2="144.25" y2="54"/><line class="cls-2" x1="71.75" y1="39.6" x2="144.25" y2="39.6"/><line class="cls-2" x1="71.75" y1="25.2" x2="144.25" y2="25.2"/><line class="cls-2" x1="71.75" y1="10.8" x2="144.25" y2="10.8"/><line class="cls-2" x1="71.75" y1="61.2" x2="144.25" y2="61.2"/><line class="cls-2" x1="71.75" y1="46.8" x2="144.25" y2="46.8"/><line class="cls-2" x1="71.75" y1="32.4" x2="144.25" y2="32.4"/><line class="cls-2" x1="71.75" y1="18" x2="144.25" y2="18"/><line class="cls-2" x1="71.75" y1="3.6" x2="144.25" y2="3.6"/><line class="cls-2" x1="-0.25" y1="68.4" x2="72.25" y2="68.4"/><line class="cls-2" x1="-0.25" y1="54" x2="72.25" y2="54"/><line class="cls-2" x1="-0.25" y1="39.6" x2="72.25" y2="39.6"/><line class="cls-2" x1="-0.25" y1="25.2" x2="72.25" y2="25.2"/><line class="cls-2" x1="-0.25" y1="10.8" x2="72.25" y2="10.8"/><line class="cls-2" x1="-0.25" y1="61.2" x2="72.25" y2="61.2"/><line class="cls-2" x1="-0.25" y1="46.8" x2="72.25" y2="46.8"/><line class="cls-2" x1="-0.25" y1="32.4" x2="72.25" y2="32.4"/><line class="cls-2" x1="-0.25" y1="18" x2="72.25" y2="18"/><line class="cls-2" x1="-0.25" y1="3.6" x2="72.25" y2="3.6"/><line class="cls-2" x1="-72.25" y1="68.4" x2="0.25" y2="68.4"/><line class="cls-2" x1="-72.25" y1="54" x2="0.25" y2="54"/><line class="cls-2" x1="-72.25" y1="39.6" x2="0.25" y2="39.6"/><line class="cls-2" x1="-72.25" y1="25.2" x2="0.25" y2="25.2"/><line class="cls-2" x1="-72.25" y1="10.8" x2="0.25" y2="10.8"/><line class="cls-2" x1="-72.25" y1="61.2" x2="0.25" y2="61.2"/><line class="cls-2" x1="-72.25" y1="46.8" x2="0.25" y2="46.8"/><line class="cls-2" x1="-72.25" y1="32.4" x2="0.25" y2="32.4"/><line class="cls-2" x1="-72.25" y1="18" x2="0.25" y2="18"/><line class="cls-2" x1="-72.25" y1="3.6" x2="0.25" y2="3.6"/></pattern></defs><title>Artboard 1</title><text class="cls-4" transform="translate(3.23 74.28)">H</text><rect class="cls-5" x="44.98" y="18.82" width="7.43" height="11.86"/><polygon class="cls-5" points="52.41 77.47 52.41 51.82 29.73 51.82 29.73 59.24 44.98 59.24 44.98 84.89 61.01 84.89 61.01 77.47 52.41 77.47"/><polygon class="cls-5" points="7.43 77.47 7.43 18.82 0 18.82 0 84.89 15.93 84.89 15.93 77.47 7.43 77.47"/><text class="cls-6" transform="translate(218.77 65.8)">L</text><polygon class="cls-7" points="222.97 68.98 222.97 10.34 215.55 10.34 215.55 76.4 266.17 76.4 266.17 68.98 222.97 68.98"/><path class="cls-8" d="M346.41,51H381.1V65.8H330.48V-.27h15.93Z"/><polygon class="cls-9" points="327.3 68.98 327.3 10.34 319.87 10.34 319.87 76.4 370.49 76.4 370.49 68.98 327.3 68.98"/><text class="cls-10" transform="translate(421.2 81.71)">O</text><path class="cls-11" d="M474.56,48.67a16.17,16.17,0,0,0-16.15-16.15,16.38,16.38,0,0,0-13.92,7.73,20.07,20.07,0,0,1,3.31-.3,19.39,19.39,0,0,1,19.34,19.33,19,19,0,0,1-.29,3.22A16.24,16.24,0,0,0,474.56,48.67Z"/><path class="cls-11" d="M458.41,86.06a37.39,37.39,0,0,1-34.74-50.93,34.13,34.13,0,1,0,48.09,48.44A37,37,0,0,1,458.41,86.06Z"/><text class="cls-12" transform="translate(113.67 84.89)">E</text><rect class="cls-13" x="140.17" y="61.94" width="15.16" height="5"/><polygon class="cls-13" points="117.87 88.07 117.87 29.43 110.44 29.43 110.44 95.5 161.06 95.5 161.06 88.07 117.87 88.07"/><rect class="cls-13" x="140.17" y="36.77" width="20.89" height="5"/></svg>