<svg id="Layer_1" data-name="Layer 1" xmlns="http://www.w3.org/2000/svg" viewBox="0 0 236.72 303"><defs><style>.cls-1{fill:none;stroke-width:28.04px;}.cls-1,.cls-5{stroke:#0e0e0e;stroke-miterlimit:10;}.cls-2,.cls-5{fill:#0e0e0e;}.cls-3{fill:#f9f9f9;}.cls-4{fill:#3ac7bb;}.cls-5{stroke-width:10.01px;}</style></defs><title>S Logo</title><line class="cls-1" x1="118.5" y1="87.85" x2="118.5" y2="284.17"/><path class="cls-2" d="M118.53,302.67.33,234.46.38,0,118.57,69.31,236.69.84l-.15,233.61ZM32.38,216l86.14,49.71,86-49.71.1-159.49L118.48,106.4,32.41,55.93Z"/><polygon class="cls-3" points="24.38 43.05 24.38 221.62 110.5 271.01 110.5 93.45 24.38 43.05"/><polygon class="cls-4" points="126.53 92.78 126.53 270.35 212.51 220.62 212.51 43.72 126.53 92.78"/><polygon class="cls-2" points="11.35 147.68 11.35 180.06 80.94 220.31 81.35 187.83 11.35 147.68"/><polygon class="cls-5" points="177.07 208.68 176.96 110.97 118.5 145.36 58.56 110.97 58.56 131.82 118.24 166.35 161.97 140.55 161.97 217.46 177.07 208.68"/></svg>