<svg id="Layer_1" data-name="Layer 1" xmlns="http://www.w3.org/2000/svg" viewBox="0 0 1000 1000"><defs><style>.cls-1{fill:#1c1c1c;stroke:#1c1c1c;stroke-miterlimit:10;stroke-width:30px;}</style></defs><title>Artboard 1</title><path class="cls-1" d="M703.84,260.1H418.15c-67.31,0-122.06,62.47-122.06,139.26V567.11l.07,172.79h284c68.22,0,123.72-63.35,123.72-141.2V432.89Zm-36,338.6c0,57.95-39.31,105.1-87.62,105.1H332.32L332.27,593h191.3c9.78,0,18.12-7.61,18.47-17.39a18.05,18.05,0,0,0-18-18.71H407.55a75.36,75.36,0,0,1-75.36-75.35V399.36c0-56.88,38.56-103.16,86-103.16H667.68l.05,117.8H477.43A18.33,18.33,0,0,0,459,431.39a18.05,18.05,0,0,0,18,18.71H601A66.85,66.85,0,0,1,667.81,517V598.7Z"/></svg>