<svg id="Layer_1" data-name="Layer 1" xmlns="http://www.w3.org/2000/svg" xmlns:xlink="http://www.w3.org/1999/xlink" viewBox="0 0 560 96"><defs><style>.cls-1,.cls-2,.cls-3{fill:none;}.cls-2{stroke:#0e0e0e;}.cls-2,.cls-3{stroke-width:2.88px;}.cls-3{stroke:#3ac7bb;}.cls-4,.cls-6{font-size:91.58px;font-family:AXIS-ExtraBold, AXIS;font-weight:700;letter-spacing:0.28em;}.cls-4{fill:#0e0e0e;}.cls-5{fill:url(#_10_lpi_40_);}.cls-6{fill:#3ac7bb;}.cls-7{fill:url(#_10_lpi_40_2-2);}.cls-8{fill:url(#_10_lpi_40_7);}.cls-9{fill:url(#_10_lpi_40_9);}.cls-10{fill:url(#_10_lpi_40_2-8);}.cls-11{fill:url(#_10_lpi_40_13);}.cls-12{fill:url(#_10_lpi_40_2-10);}</style><pattern id="_10_lpi_40_" data-name="10 lpi 40%" width="72" height="72" patternTransform="translate(-35.95 101.67) rotate(-45) scale(0.75 0.7)" patternUnits="userSpaceOnUse" viewBox="0 0 72 72"><rect class="cls-1" width="72" height="72"/><line class="cls-2" x1="71.75" y1="68.4" x2="144.25" y2="68.4"/><line class="cls-2" x1="71.75" y1="54" x2="144.25" y2="54"/><line class="cls-2" x1="71.75" y1="39.6" x2="144.25" y2="39.6"/><line class="cls-2" x1="71.75" y1="25.2" x2="144.25" y2="25.2"/><line class="cls-2" x1="71.75" y1="10.8" x2="144.25" y2="10.8"/><line class="cls-2" x1="71.75" y1="61.2" x2="144.25" y2="61.2"/><line class="cls-2" x1="71.75" y1="46.8" x2="144.25" y2="46.8"/><line class="cls-2" x1="71.75" y1="32.4" x2="144.25" y2="32.4"/><line class="cls-2" x1="71.75" y1="18" x2="144.25" y2="18"/><line class="cls-2" x1="71.75" y1="3.6" x2="144.25" y2="3.6"/><line class="cls-2" x1="-0.25" y1="68.4" x2="72.25" y2="68.4"/><line class="cls-2" x1="-0.25" y1="54" x2="72.25" y2="54"/><line class="cls-2" x1="-0.25" y1="39.6" x2="72.25" y2="39.6"/><line class="cls-2" x1="-0.25" y1="25.2" x2="72.25" y2="25.2"/><line class="cls-2" x1="-0.25" y1="10.8" x2="72.25" y2="10.8"/><line class="cls-2" x1="-0.25" y1="61.2" x2="72.25" y2="61.2"/><line class="cls-2" x1="-0.25" y1="46.8" x2="72.25" y2="46.8"/><line class="cls-2" x1="-0.25" y1="32.4" x2="72.25" y2="32.4"/><line class="cls-2" x1="-0.25" y1="18" x2="72.25" y2="18"/><line class="cls-2" x1="-0.25" y1="3.6" x2="72.25" y2="3.6"/><line class="cls-2" x1="-72.25" y1="68.4" x2="0.25" y2="68.4"/><line class="cls-2" x1="-72.25" y1="54" x2="0.25" y2="54"/><line class="cls-2" x1="-72.25" y1="39.6" x2="0.25" y2="39.6"/><line class="cls-2" x1="-72.25" y1="25.2" x2="0.25" y2="25.2"/><line class="cls-2" x1="-72.25" y1="10.8" x2="0.25" y2="10.8"/><line class="cls-2" x1="-72.25" y1="61.2" x2="0.25" y2="61.2"/><line class="cls-2" x1="-72.25" y1="46.8" x2="0.25" y2="46.8"/><line class="cls-2" x1="-72.25" y1="32.4" x2="0.25" y2="32.4"/><line class="cls-2" x1="-72.25" y1="18" x2="0.25" y2="18"/><line class="cls-2" x1="-72.25" y1="3.6" x2="0.25" y2="3.6"/></pattern><pattern id="_10_lpi_40_2-2" data-name="10 lpi 40% 2" width="72" height="72" patternTransform="translate(-19.48 114.56) rotate(-45) scale(0.75 0.7)" patternUnits="userSpaceOnUse" viewBox="0 0 72 72"><rect class="cls-1" width="72" height="72"/><line class="cls-3" x1="71.75" y1="68.4" x2="144.25" y2="68.4"/><line class="cls-3" x1="71.75" y1="54" x2="144.25" y2="54"/><line class="cls-3" x1="71.75" y1="39.6" x2="144.25" y2="39.6"/><line class="cls-3" x1="71.75" y1="25.2" x2="144.25" y2="25.2"/><line class="cls-3" x1="71.75" y1="10.8" x2="144.25" y2="10.8"/><line class="cls-3" x1="71.75" y1="61.2" x2="144.25" y2="61.2"/><line class="cls-3" x1="71.75" y1="46.8" x2="144.25" y2="46.8"/><line class="cls-3" x1="71.75" y1="32.4" x2="144.25" y2="32.4"/><line class="cls-3" x1="71.75" y1="18" x2="144.25" y2="18"/><line class="cls-3" x1="71.75" y1="3.6" x2="144.25" y2="3.6"/><line class="cls-3" x1="-0.25" y1="68.4" x2="72.25" y2="68.4"/><line class="cls-3" x1="-0.25" y1="54" x2="72.25" y2="54"/><line class="cls-3" x1="-0.25" y1="39.6" x2="72.25" y2="39.6"/><line class="cls-3" x1="-0.25" y1="25.2" x2="72.25" y2="25.2"/><line class="cls-3" x1="-0.25" y1="10.8" x2="72.25" y2="10.8"/><line class="cls-3" x1="-0.25" y1="61.2" x2="72.25" y2="61.2"/><line class="cls-3" x1="-0.25" y1="46.8" x2="72.25" y2="46.8"/><line class="cls-3" x1="-0.25" y1="32.4" x2="72.25" y2="32.4"/><line class="cls-3" x1="-0.25" y1="18" x2="72.25" y2="18"/><line class="cls-3" x1="-0.25" y1="3.6" x2="72.25" y2="3.6"/><line class="cls-3" x1="-72.25" y1="68.4" x2="0.25" y2="68.4"/><line class="cls-3" x1="-72.25" y1="54" x2="0.25" y2="54"/><line class="cls-3" x1="-72.25" y1="39.6" x2="0.25" y2="39.6"/><line class="cls-3" x1="-72.25" y1="25.2" x2="0.25" y2="25.2"/><line class="cls-3" x1="-72.25" y1="10.8" x2="0.25" y2="10.8"/><line class="cls-3" x1="-72.25" y1="61.2" x2="0.25" y2="61.2"/><line class="cls-3" x1="-72.25" y1="46.8" x2="0.25" y2="46.8"/><line class="cls-3" x1="-72.25" y1="32.4" x2="0.25" y2="32.4"/><line class="cls-3" x1="-72.25" y1="18" x2="0.25" y2="18"/><line class="cls-3" x1="-72.25" y1="3.6" x2="0.25" y2="3.6"/></pattern><pattern id="_10_lpi_40_7" data-name="10 lpi 40%" width="72" height="72" patternTransform="translate(-11.71 87.61) rotate(-45) scale(0.75 0.7)" patternUnits="userSpaceOnUse" viewBox="0 0 72 72"><rect class="cls-1" width="72" height="72"/><line class="cls-2" x1="71.75" y1="68.4" x2="144.25" y2="68.4"/><line class="cls-2" x1="71.75" y1="54" x2="144.25" y2="54"/><line class="cls-2" x1="71.75" y1="39.6" x2="144.25" y2="39.6"/><line class="cls-2" x1="71.75" y1="25.2" x2="144.25" y2="25.2"/><line class="cls-2" x1="71.75" y1="10.8" x2="144.25" y2="10.8"/><line class="cls-2" x1="71.75" y1="61.2" x2="144.25" y2="61.2"/><line class="cls-2" x1="71.75" y1="46.8" x2="144.25" y2="46.8"/><line class="cls-2" x1="71.75" y1="32.4" x2="144.25" y2="32.4"/><line class="cls-2" x1="71.75" y1="18" x2="144.25" y2="18"/><line class="cls-2" x1="71.75" y1="3.6" x2="144.25" y2="3.6"/><line class="cls-2" x1="-0.25" y1="68.4" x2="72.25" y2="68.4"/><line class="cls-2" x1="-0.25" y1="54" x2="72.25" y2="54"/><line class="cls-2" x1="-0.25" y1="39.6" x2="72.25" y2="39.6"/><line class="cls-2" x1="-0.25" y1="25.2" x2="72.25" y2="25.2"/><line class="cls-2" x1="-0.25" y1="10.8" x2="72.25" y2="10.8"/><line class="cls-2" x1="-0.25" y1="61.2" x2="72.25" y2="61.2"/><line class="cls-2" x1="-0.25" y1="46.8" x2="72.25" y2="46.8"/><line class="cls-2" x1="-0.25" y1="32.4" x2="72.25" y2="32.4"/><line class="cls-2" x1="-0.25" y1="18" x2="72.25" y2="18"/><line class="cls-2" x1="-0.25" y1="3.6" x2="72.25" y2="3.6"/><line class="cls-2" x1="-72.25" y1="68.4" x2="0.25" y2="68.4"/><line class="cls-2" x1="-72.25" y1="54" x2="0.25" y2="54"/><line class="cls-2" x1="-72.25" y1="39.6" x2="0.25" y2="39.6"/><line class="cls-2" x1="-72.25" y1="25.2" x2="0.25" y2="25.2"/><line class="cls-2" x1="-72.25" y1="10.8" x2="0.25" y2="10.8"/><line class="cls-2" x1="-72.25" y1="61.2" x2="0.25" y2="61.2"/><line class="cls-2" x1="-72.25" y1="46.8" x2="0.25" y2="46.8"/><line class="cls-2" x1="-72.25" y1="32.4" x2="0.25" y2="32.4"/><line class="cls-2" x1="-72.25" y1="18" x2="0.25" y2="18"/><line class="cls-2" x1="-72.25" y1="3.6" x2="0.25" y2="3.6"/></pattern><pattern id="_10_lpi_40_9" data-name="10 lpi 40%" width="72" height="72" patternTransform="translate(16.27 72.83) rotate(-45) scale(0.75 0.7)" patternUnits="userSpaceOnUse" viewBox="0 0 72 72"><rect class="cls-1" width="72" height="72"/><line class="cls-2" x1="71.75" y1="68.4" x2="144.25" y2="68.4"/><line class="cls-2" x1="71.75" y1="54" x2="144.25" y2="54"/><line class="cls-2" x1="71.75" y1="39.6" x2="144.25" y2="39.6"/><line class="cls-2" x1="71.75" y1="25.2" x2="144.25" y2="25.2"/><line class="cls-2" x1="71.75" y1="10.8" x2="144.25" y2="10.8"/><line class="cls-2" x1="71.75" y1="61.2" x2="144.25" y2="61.2"/><line class="cls-2" x1="71.75" y1="46.8" x2="144.25" y2="46.8"/><line class="cls-2" x1="71.75" y1="32.4" x2="144.25" y2="32.4"/><line class="cls-2" x1="71.75" y1="18" x2="144.25" y2="18"/><line class="cls-2" x1="71.75" y1="3.6" x2="144.25" y2="3.6"/><line class="cls-2" x1="-0.25" y1="68.4" x2="72.25" y2="68.4"/><line class="cls-2" x1="-0.25" y1="54" x2="72.25" y2="54"/><line class="cls-2" x1="-0.25" y1="39.6" x2="72.25" y2="39.6"/><line class="cls-2" x1="-0.25" y1="25.2" x2="72.25" y2="25.2"/><line class="cls-2" x1="-0.25" y1="10.8" x2="72.25" y2="10.8"/><line class="cls-2" x1="-0.25" y1="61.2" x2="72.25" y2="61.2"/><line class="cls-2" x1="-0.25" y1="46.8" x2="72.25" y2="46.8"/><line class="cls-2" x1="-0.25" y1="32.4" x2="72.25" y2="32.4"/><line class="cls-2" x1="-0.25" y1="18" x2="72.25" y2="18"/><line class="cls-2" x1="-0.25" y1="3.6" x2="72.25" y2="3.6"/><line class="cls-2" x1="-72.25" y1="68.4" x2="0.25" y2="68.4"/><line class="cls-2" x1="-72.25" y1="54" x2="0.25" y2="54"/><line class="cls-2" x1="-72.25" y1="39.6" x2="0.25" y2="39.6"/><line class="cls-2" x1="-72.25" y1="25.2" x2="0.25" y2="25.2"/><line class="cls-2" x1="-72.25" y1="10.8" x2="0.25" y2="10.8"/><line class="cls-2" x1="-72.25" y1="61.2" x2="0.25" y2="61.2"/><line class="cls-2" x1="-72.25" y1="46.8" x2="0.25" y2="46.8"/><line class="cls-2" x1="-72.25" y1="32.4" x2="0.25" y2="32.4"/><line class="cls-2" x1="-72.25" y1="18" x2="0.25" y2="18"/><line class="cls-2" x1="-72.25" y1="3.6" x2="0.25" y2="3.6"/></pattern><pattern id="_10_lpi_40_2-8" data-name="10 lpi 40% 2" width="72" height="72" patternTransform="translate(31.38 0.7) rotate(-45) scale(0.75 0.7)" patternUnits="userSpaceOnUse" viewBox="0 0 72 72"><rect class="cls-1" width="72" height="72"/><line class="cls-3" x1="71.75" y1="68.4" x2="144.25" y2="68.4"/><line class="cls-3" x1="71.75" y1="54" x2="144.25" y2="54"/><line class="cls-3" x1="71.75" y1="39.6" x2="144.25" y2="39.6"/><line class="cls-3" x1="71.75" y1="25.2" x2="144.25" y2="25.2"/><line class="cls-3" x1="71.75" y1="10.8" x2="144.25" y2="10.8"/><line class="cls-3" x1="71.75" y1="61.2" x2="144.25" y2="61.2"/><line class="cls-3" x1="71.75" y1="46.8" x2="144.25" y2="46.8"/><line class="cls-3" x1="71.75" y1="32.4" x2="144.25" y2="32.4"/><line class="cls-3" x1="71.75" y1="18" x2="144.25" y2="18"/><line class="cls-3" x1="71.75" y1="3.6" x2="144.25" y2="3.6"/><line class="cls-3" x1="-0.25" y1="68.4" x2="72.25" y2="68.4"/><line class="cls-3" x1="-0.25" y1="54" x2="72.25" y2="54"/><line class="cls-3" x1="-0.25" y1="39.6" x2="72.25" y2="39.6"/><line class="cls-3" x1="-0.25" y1="25.2" x2="72.25" y2="25.2"/><line class="cls-3" x1="-0.25" y1="10.8" x2="72.25" y2="10.8"/><line class="cls-3" x1="-0.25" y1="61.2" x2="72.25" y2="61.2"/><line class="cls-3" x1="-0.25" y1="46.8" x2="72.25" y2="46.8"/><line class="cls-3" x1="-0.25" y1="32.4" x2="72.25" y2="32.4"/><line class="cls-3" x1="-0.25" y1="18" x2="72.25" y2="18"/><line class="cls-3" x1="-0.25" y1="3.6" x2="72.25" y2="3.6"/><line class="cls-3" x1="-72.25" y1="68.4" x2="0.25" y2="68.4"/><line class="cls-3" x1="-72.25" y1="54" x2="0.25" y2="54"/><line class="cls-3" x1="-72.25" y1="39.6" x2="0.25" y2="39.6"/><line class="cls-3" x1="-72.25" y1="25.2" x2="0.25" y2="25.2"/><line class="cls-3" x1="-72.25" y1="10.8" x2="0.25" y2="10.8"/><line class="cls-3" x1="-72.25" y1="61.2" x2="0.25" y2="61.2"/><line class="cls-3" x1="-72.25" y1="46.8" x2="0.25" y2="46.8"/><line class="cls-3" x1="-72.25" y1="32.4" x2="0.25" y2="32.4"/><line class="cls-3" x1="-72.25" y1="18" x2="0.25" y2="18"/><line class="cls-3" x1="-72.25" y1="3.6" x2="0.25" y2="3.6"/></pattern><pattern id="_10_lpi_40_13" data-name="10 lpi 40%" width="72" height="72" patternTransform="translate(23.12 -4.84) rotate(-45) scale(0.75 0.7)" patternUnits="userSpaceOnUse" viewBox="0 0 72 72"><rect class="cls-1" width="72" height="72"/><line class="cls-2" x1="71.75" y1="68.4" x2="144.25" y2="68.4"/><line class="cls-2" x1="71.75" y1="54" x2="144.25" y2="54"/><line class="cls-2" x1="71.75" y1="39.6" x2="144.25" y2="39.6"/><line class="cls-2" x1="71.75" y1="25.2" x2="144.25" y2="25.2"/><line class="cls-2" x1="71.75" y1="10.8" x2="144.25" y2="10.8"/><line class="cls-2" x1="71.75" y1="61.2" x2="144.25" y2="61.2"/><line class="cls-2" x1="71.75" y1="46.8" x2="144.25" y2="46.8"/><line class="cls-2" x1="71.75" y1="32.4" x2="144.25" y2="32.4"/><line class="cls-2" x1="71.75" y1="18" x2="144.25" y2="18"/><line class="cls-2" x1="71.75" y1="3.6" x2="144.25" y2="3.6"/><line class="cls-2" x1="-0.25" y1="68.4" x2="72.25" y2="68.4"/><line class="cls-2" x1="-0.25" y1="54" x2="72.25" y2="54"/><line class="cls-2" x1="-0.25" y1="39.6" x2="72.25" y2="39.6"/><line class="cls-2" x1="-0.25" y1="25.2" x2="72.25" y2="25.2"/><line class="cls-2" x1="-0.25" y1="10.8" x2="72.25" y2="10.8"/><line class="cls-2" x1="-0.25" y1="61.2" x2="72.25" y2="61.2"/><line class="cls-2" x1="-0.25" y1="46.8" x2="72.25" y2="46.8"/><line class="cls-2" x1="-0.25" y1="32.4" x2="72.25" y2="32.4"/><line class="cls-2" x1="-0.25" y1="18" x2="72.25" y2="18"/><line class="cls-2" x1="-0.25" y1="3.6" x2="72.25" y2="3.6"/><line class="cls-2" x1="-72.25" y1="68.4" x2="0.25" y2="68.4"/><line class="cls-2" x1="-72.25" y1="54" x2="0.25" y2="54"/><line class="cls-2" x1="-72.25" y1="39.6" x2="0.25" y2="39.6"/><line class="cls-2" x1="-72.25" y1="25.2" x2="0.25" y2="25.2"/><line class="cls-2" x1="-72.25" y1="10.8" x2="0.25" y2="10.8"/><line class="cls-2" x1="-72.25" y1="61.2" x2="0.25" y2="61.2"/><line class="cls-2" x1="-72.25" y1="46.8" x2="0.25" y2="46.8"/><line class="cls-2" x1="-72.25" y1="32.4" x2="0.25" y2="32.4"/><line class="cls-2" x1="-72.25" y1="18" x2="0.25" y2="18"/><line class="cls-2" x1="-72.25" y1="3.6" x2="0.25" y2="3.6"/></pattern><pattern id="_10_lpi_40_2-10" data-name="10 lpi 40% 2" width="72" height="72" patternTransform="translate(87.73 -21.32) rotate(-45) scale(0.75 0.7)" patternUnits="userSpaceOnUse" viewBox="0 0 72 72"><rect class="cls-1" width="72" height="72"/><line class="cls-3" x1="71.75" y1="68.4" x2="144.25" y2="68.4"/><line class="cls-3" x1="71.75" y1="54" x2="144.25" y2="54"/><line class="cls-3" x1="71.75" y1="39.6" x2="144.25" y2="39.6"/><line class="cls-3" x1="71.75" y1="25.2" x2="144.25" y2="25.2"/><line class="cls-3" x1="71.75" y1="10.8" x2="144.25" y2="10.8"/><line class="cls-3" x1="71.75" y1="61.2" x2="144.25" y2="61.2"/><line class="cls-3" x1="71.75" y1="46.8" x2="144.25" y2="46.8"/><line class="cls-3" x1="71.75" y1="32.4" x2="144.25" y2="32.4"/><line class="cls-3" x1="71.75" y1="18" x2="144.25" y2="18"/><line class="cls-3" x1="71.75" y1="3.6" x2="144.25" y2="3.6"/><line class="cls-3" x1="-0.25" y1="68.4" x2="72.25" y2="68.4"/><line class="cls-3" x1="-0.25" y1="54" x2="72.25" y2="54"/><line class="cls-3" x1="-0.25" y1="39.6" x2="72.25" y2="39.6"/><line class="cls-3" x1="-0.25" y1="25.2" x2="72.25" y2="25.2"/><line class="cls-3" x1="-0.25" y1="10.8" x2="72.25" y2="10.8"/><line class="cls-3" x1="-0.25" y1="61.2" x2="72.25" y2="61.2"/><line class="cls-3" x1="-0.25" y1="46.8" x2="72.25" y2="46.8"/><line class="cls-3" x1="-0.25" y1="32.4" x2="72.25" y2="32.4"/><line class="cls-3" x1="-0.25" y1="18" x2="72.25" y2="18"/><line class="cls-3" x1="-0.25" y1="3.6" x2="72.25" y2="3.6"/><line class="cls-3" x1="-72.25" y1="68.4" x2="0.25" y2="68.4"/><line class="cls-3" x1="-72.25" y1="54" x2="0.25" y2="54"/><line class="cls-3" x1="-72.25" y1="39.6" x2="0.25" y2="39.6"/><line class="cls-3" x1="-72.25" y1="25.2" x2="0.25" y2="25.2"/><line class="cls-3" x1="-72.25" y1="10.8" x2="0.25" y2="10.8"/><line class="cls-3" x1="-72.25" y1="61.2" x2="0.25" y2="61.2"/><line class="cls-3" x1="-72.25" y1="46.8" x2="0.25" y2="46.8"/><line class="cls-3" x1="-72.25" y1="32.4" x2="0.25" y2="32.4"/><line class="cls-3" x1="-72.25" y1="18" x2="0.25" y2="18"/><line class="cls-3" x1="-72.25" y1="3.6" x2="0.25" y2="3.6"/></pattern></defs><title>Artboard 1</title><text class="cls-4" transform="translate(5.72 74.93)">P</text><path class="cls-5" d="M46.4,36.64c0-4.62-2.42-7-7.21-7.07H30.33v7c4.61.39,7.92,2.82,8.82,7.37h.09C42.51,44,46.4,42.72,46.4,36.64Z"/><polygon class="cls-5" points="9.22 77.93 9.22 22.65 2.22 22.65 2.22 84.93 17.33 84.93 17.33 77.93 9.22 77.93"/><path class="cls-5" d="M40.89,63.82H30.33v7h.56c8.33,0,14.42-3.25,18.35-8.11A30.56,30.56,0,0,1,40.89,63.82Z"/><text class="cls-6" transform="translate(95.72 84.93)">R</text><path class="cls-7" d="M136.86,46a6.39,6.39,0,0,0-6.16-6.43h-10v7h0a9.24,9.24,0,0,1,8.5,6h1.41A6.4,6.4,0,0,0,136.86,46Z"/><polygon class="cls-7" points="99.68 87.93 99.68 32.65 92.68 32.65 92.68 94.93 107.7 94.93 107.7 87.93 99.68 87.93"/><polygon class="cls-7" points="136.34 87.93 126.99 72.45 120.7 72.45 120.7 82.78 128.03 94.93 146.71 94.93 141.93 87.93 136.34 87.93"/><text class="cls-4" transform="translate(185.72 64.93)">I</text><polygon class="cls-8" points="189.68 67.93 189.68 12.65 182.68 12.65 182.68 74.93 197.7 74.93 197.7 67.93 189.68 67.93"/><text class="cls-4" transform="translate(239.72 74.93)">C</text><path class="cls-9" d="M291.27,35.91c-2.6-5-7.54-7.81-13.91-7.81a15.09,15.09,0,0,0-13.42,7.3,21.12,21.12,0,0,1,3.42-.3c7.87,0,13.64,3.76,16.58,9.44l12.73-7.42c-.11-.17-.23-.34-.33-.51l-3.62,2.11Z"/><path class="cls-9" d="M277.36,79c-20.93,0-36.7-15.34-36.7-35.69a34.07,34.07,0,0,1,2.16-12,31,31,0,0,0-9.16,22c0,18.41,14.19,32.69,33.7,32.69a33.61,33.61,0,0,0,23.94-9.61A38.08,38.08,0,0,1,277.36,79Z"/><text class="cls-6" transform="translate(335.72 84.93)">I</text><polygon class="cls-10" points="339.68 87.93 339.68 32.65 332.68 32.65 332.68 94.93 347.7 94.93 347.7 87.93 339.68 87.93"/><text class="cls-4" transform="translate(390.72 64.93)">N</text><polygon class="cls-11" points="440.38 32.34 440.38 12.65 433.38 12.65 433.38 23.89 440.38 32.34"/><polygon class="cls-11" points="441.97 67.93 414.87 35.16 414.87 52.55 433.38 74.93 448.49 74.93 448.49 67.93 441.97 67.93"/><polygon class="cls-11" points="393.76 67.93 393.76 12.65 386.76 12.65 386.76 74.93 401.87 74.93 401.87 67.93 393.76 67.93"/><text class="cls-6" transform="translate(491.72 84.93)">G</text><path class="cls-12" d="M529.54,89c-23.09,0-36.88-17.91-36.88-35.23a34.72,34.72,0,0,1,2.2-12.26,31.62,31.62,0,0,0-9.2,22.26c0,16.76,13.28,32.23,33.88,32.23a36.49,36.49,0,0,0,25.14-10A39.66,39.66,0,0,1,529.54,89Z"/><path class="cls-12" d="M542,43.65c-2.65-3.36-6.83-5-12.75-5-6.15,0-11,2.8-13.58,7.3a21.89,21.89,0,0,1,3.58-.3,27.41,27.41,0,0,1,5.59.56h20.53l2-1c-.28-.38-.59-.75-.89-1.12l-2.94,1.5Z"/><path class="cls-12" d="M515.79,59.21v2A15.55,15.55,0,0,0,529.45,69c4.91,0,9.3-1.3,12.29-3.6V63.75h-19V59.21Z"/><path class="cls-12" d="M515.79,70.33v.42h.56C516.16,70.61,516,70.48,515.79,70.33Z"/></svg>