<svg id="Layer_2" data-name="Layer 2" xmlns="http://www.w3.org/2000/svg" viewBox="0 0 1920 1080"><defs><style>.cls-1{fill:#3ac7bb;}.cls-2,.cls-3{fill:none;stroke:#0e0e0e;stroke-miterlimit:10;}.cls-2{stroke-width:9px;}.cls-3{stroke-width:15px;}.cls-4{fill:#fff;}.cls-5{fill:#0e0e0e;}</style></defs><title>Artboard 1</title><polygon class="cls-1" points="1102.37 684.48 1086.4 660.08 1115.52 658.45 1102.37 684.48"/><polygon class="cls-1" points="1716.16 538.76 1692.72 556.11 1689.41 527.14 1716.16 538.76"/><polygon class="cls-1" points="103.51 108.61 84.88 110.72 92.37 93.53 103.51 108.61"/><polygon class="cls-1" points="715.26 304.13 697.66 310.61 700.84 292.13 715.26 304.13"/><polygon class="cls-1" points="870.26 954.13 852.66 960.61 855.84 942.13 870.26 954.13"/><polygon class="cls-1" points="1183.26 344.13 1165.66 350.61 1168.84 332.13 1183.26 344.13"/><polygon class="cls-2" points="997.28 238.2 973.47 224.45 997.28 210.7 997.28 238.2"/><polygon class="cls-3" points="1746.09 703.45 1787.82 668.21 1797.47 721.97 1746.09 703.45"/><path class="cls-1" d="M573.88,820.54l8.09,14H565.79l8.09-14m0-18-23.68,41h47.36l-23.68-41Z"/><path class="cls-1" d="M1262.6,846.94l3.66,15.76L1250.78,858l11.82-11m5.23-17.22-34.58,32.35,45.3,13.78-10.72-46.13Z"/><path class="cls-1" d="M158.44,893l2.16,9.28-9.12-2.77,7-6.51m3.09-10.15L141.15,902l26.69,8.12-6.31-27.18Z"/><path class="cls-1" d="M1818,90.39l1.61,6.91-6.79-2.07,5.18-4.84m2.3-7.56L1805.16,97l19.87,6-4.7-20.23Z"/><path class="cls-1" d="M532.6,129.94l3.66,15.76L520.78,141l11.82-11.05m5.23-17.22-34.58,32.35,45.3,13.78-10.72-46.13Z"/><polygon class="cls-1" points="412.27 653.19 438.08 668.1 412.27 683 412.27 653.19"/><polygon class="cls-4" points="1136.76 606.4 1114.94 588.24 1141.58 578.42 1136.76 606.4"/><polygon class="cls-4" points="913.88 842.74 911.95 814.41 937.44 826.91 913.88 842.74"/><polygon class="cls-4" points="1867.55 374.4 1876.13 333.97 1906.86 361.61 1867.55 374.4"/><polygon class="cls-4" points="300.35 754.04 327.98 754.04 314.17 777.97 300.35 754.04"/><polygon class="cls-5" points="1531.47 256.83 1513.94 242.24 1535.34 234.35 1531.47 256.83"/><polygon class="cls-5" points="44.99 543.73 22.32 546.3 31.43 525.39 44.99 543.73"/><polygon class="cls-5" points="1624.41 943.12 1609.44 941.81 1618.05 929.51 1624.41 943.12"/><polygon class="cls-5" points="726.41 530.12 711.44 528.81 720.05 516.51 726.41 530.12"/><polygon class="cls-5" points="1260.85 481.62 1246.75 486.81 1249.3 472.01 1260.85 481.62"/><polygon class="cls-5" points="359.52 312.63 354.84 298.36 369.54 301.44 359.52 312.63"/><polygon class="cls-5" points="1051.4 856.08 1011.59 843.98 1041.98 815.55 1051.4 856.08"/></svg>