<svg id="Layer_1" data-name="Layer 1" xmlns="http://www.w3.org/2000/svg" viewBox="0 0 1920 1080"><defs><style>.cls-1{fill:#3ac7bb;}.cls-2,.cls-3,.cls-4{fill:none;stroke:#0e0e0e;stroke-miterlimit:10;}.cls-2{stroke-width:9px;}.cls-3{stroke-width:15px;}.cls-4{stroke-width:21px;}.cls-5{fill:#0e0e0e;}.cls-6{fill:#fff;}</style></defs><title>Landing Page</title><polygon class="cls-1" points="443.48 270.57 321.61 360.79 304.41 210.14 443.48 270.57"/><polygon class="cls-1" points="1106.37 746.48 1090.4 722.08 1119.52 720.45 1106.37 746.48"/><polygon class="cls-1" points="899.16 341.76 875.72 359.11 872.41 330.14 899.16 341.76"/><polygon class="cls-1" points="1704.26 223.13 1686.66 229.61 1689.84 211.13 1704.26 223.13"/><polygon class="cls-1" points="500.26 66.13 482.66 72.61 485.84 54.13 500.26 66.13"/><polygon class="cls-1" points="874.26 1016.13 856.66 1022.61 859.84 1004.13 874.26 1016.13"/><polygon class="cls-2" points="937.28 667.2 913.47 653.45 937.28 639.7 937.28 667.2"/><polygon class="cls-3" points="709.09 223.45 750.82 188.21 760.47 241.97 709.09 223.45"/><polygon class="cls-2" points="1561 470.89 1557.88 443.54 1583.13 454.51 1561 470.89"/><path class="cls-1" d="M1419.71,287.06,1412,331.7l-34.82-29,42.5-15.67m32-38.42-123.76,45.6,101.37,84.38,22.39-130Z"/><path class="cls-1" d="M211.6,543.31l1.84,16.07-14.84-6.44,13-9.63m7.18-16.5L180.72,555l43.43,18.87-5.37-47Z"/><path class="cls-1" d="M1266.6,908.94l3.66,15.76L1254.78,920l11.82-11m5.23-17.22-34.58,32.35,45.3,13.78-10.72-46.13Z"/><polygon class="cls-1" points="442.27 860.19 468.08 875.1 442.27 890 442.27 860.19"/><polygon class="cls-4" points="753.74 832.58 748.02 748.31 823.86 785.49 753.74 832.58"/><polygon class="cls-5" points="515.8 694.23 456.94 645.24 528.8 618.76 515.8 694.23"/><polygon class="cls-6" points="415.8 501.23 356.94 452.24 428.8 425.76 415.8 501.23"/><polygon class="cls-6" points="1140.76 668.4 1118.94 650.24 1145.58 640.42 1140.76 668.4"/><polygon class="cls-6" points="917.88 904.74 915.95 876.41 941.44 888.91 917.88 904.74"/><polygon class="cls-6" points="1562.14 602.75 1575.23 541.01 1622.16 583.22 1562.14 602.75"/><polygon class="cls-6" points="1097.68 423.56 1141 324.1 1205.47 411.35 1097.68 423.56"/><polygon class="cls-6" points="613.47 587.21 675.31 445.23 767.35 569.78 613.47 587.21"/><polygon class="cls-6" points="305.55 692.03 374.79 692.03 340.17 751.99 305.55 692.03"/><polygon class="cls-5" points="1123.47 253.83 1105.94 239.24 1127.34 231.35 1123.47 253.83"/><polygon class="cls-5" points="235.99 834.73 213.32 837.3 222.43 816.39 235.99 834.73"/><polygon class="cls-5" points="1628.41 1005.12 1613.44 1003.81 1622.05 991.51 1628.41 1005.12"/><polygon class="cls-5" points="488.52 336.63 483.84 322.36 498.54 325.44 488.52 336.63"/><polygon class="cls-5" points="1518.66 782.58 1330.24 725.28 1474.07 590.75 1518.66 782.58"/></svg>