<svg xmlns="http://www.w3.org/2000/svg" viewBox="0 0 500 500"><defs><style>.cls-1{fill:#d64747;}.cls-2,.cls-3{fill:#f2f2f2;}.cls-2{stroke:#000;stroke-linecap:round;stroke-linejoin:round;stroke-width:1.79px;}.cls-4{fill:#d1d1d1;}.cls-5{fill:#fff;}</style></defs><title>Conquers</title><g id="Background"><rect class="cls-1" width="500" height="500"/></g><g id="Conquers"><path d="M459,223.55l-.92,4.71c-.61,3.15-.35,5.7-2.41,9h0a18.67,18.67,0,0,1,1.3,11l-2.31,15.18a12.47,12.47,0,0,1-2.66,6.15,12.33,12.33,0,0,1-9.48,4.47,12,12,0,0,1-3.95-.66S408.35,263.11,408,263h0c-3.42-.84-27-11-27.95-11.3-5.94-1.78-16.22-4.84-18.33-5.43-1.61-.46-6.46-2.35-6.87-2.42l-4.64-.8a.67.67,0,0,0-.74.94L358,262.62a6.79,6.79,0,0,1,.35.95c.27.91,2.53,9.14-1.51,15.89a14.9,14.9,0,0,1-9.85,6.93,33.25,33.25,0,0,1-7.2.85c-.86,0-1.72-.05-2.54-.13a16.48,16.48,0,0,1-12.77-8.42A246.94,246.94,0,0,1,312,252.23h0a18.08,18.08,0,0,1-6.34.71l-11.92-.79c-.27,0-.55-.05-.82-.09a8.2,8.2,0,0,1-4.6,2.93,8.36,8.36,0,0,1-5.17-.43h0c-.2.7-.41,1.4-.61,2.13a64.57,64.57,0,0,1-2.69,5.92c-15.64,34.81-47.49,54.73-47.81,54.92a7.6,7.6,0,0,1-4,1.13,7.49,7.49,0,0,1-5.95-2.9l-17.92-23A7.57,7.57,0,0,1,205.64,282C227.35,266,238.4,249.5,243.9,238.28h0c-1.15-.66-3.31-2.25-5.86-3.58a10.66,10.66,0,0,0-5.36-1.14h-.18a2,2,0,0,0-.88.2c-4,1.24-7.56,1.29-11.75,1.29a27.35,27.35,0,0,1-7-.93A68.39,68.39,0,0,0,197.28,232c-2.05,0-4.28-.12-6.59-.2h-.24c-7.41-.24-15.83-.52-22-.28-4.62.16-13.32-.26-14.36-.26l-92.85-.74A11,11,0,0,1,54,227.81l-2.17-1.89h0l-2.58-.28c-5-.51-8.75-2.37-8.75-7.4v-9.55c0-4.34,2.85-5.08,6.86-6.33h0l-.12-12a8.93,8.93,0,0,1,8.89-9h6.57A8.85,8.85,0,0,1,71,187l6.26,16.08h0l23.13-.52h0c9.28-11,16-12.56,19.61-12.26h28.45a12.88,12.88,0,0,1,8.56-3.35l36.36-.37c8.79.4,14.9-3.73,21-3.36a144.93,144.93,0,0,0,22.75-.46,8.43,8.43,0,0,1,6.24,1.88h0a7.76,7.76,0,0,1,2.55-.19l12.12,1h0l1.64.13h0l20.32,1.71h0l11.9-.1c1.64,0,8.44,0,10,0h17.54c5.12,0,16.33,3,18.3,4.34l10.06,6.7c1.16.78,5.48,3.14,6.79,3.8l7,3.51c1.29.64,4.75,2.56,5.65,2.63l22.26,1.77h0a58.05,58.05,0,0,0,6.45.42h0l14.77.39c4,.24,15.31.36,18.14.74l24.46,2.33a7.57,7.57,0,0,1,5.14,3.06h0C459.78,218.56,459.41,221.52,459,223.55Z"/><path class="cls-2" d="M147.72,219.35H121.61a.68.68,0,0,1,0-1.36h25.61a23.49,23.49,0,0,1-.85-7.63H146l-29,0a.17.17,0,0,1-.14-.09.16.16,0,0,1,0-.18l2-3a2.87,2.87,0,0,1,2.38-1.3h25.52c.32-2.33.78-4.6,1.25-6.68a15.38,15.38,0,0,1,.53-1.83H118.06c-.21,0-5.25-.86-14.8,11.53a1.7,1.7,0,0,1-1.3.68l-29.75.69-7.85-20.72a1.7,1.7,0,0,0-1.58-1.12H56.4a1.74,1.74,0,0,0-1.72,1.77l.19,18.28-4.45.53a2.62,2.62,0,0,0-2.28,2.63v4.22a2.61,2.61,0,0,0,2.3,2.62l3.74.41a3,3,0,0,1,1.65.74l3,2.72a3.73,3.73,0,0,0,2.49,1l90.17.73h.89A9.1,9.1,0,0,1,147.72,219.35Zm-49.06,0H70.26a.68.68,0,0,1,0-1.36h28.4a.68.68,0,0,1,0,1.36ZM64.77,206.82a.82.82,0,0,1-.83.81H61.25a.83.83,0,0,1-.83-.7,7.59,7.59,0,0,1,0-1.17.71.71,0,0,1,.66-.67l2.8-.15h0a.85.85,0,0,1,.57.22.77.77,0,0,1,.26.59Z"/><path class="cls-3" d="M275.7,255.82a1.26,1.26,0,0,1-.9-.38c-5.44-5.54-14.33-27.12-18.26-37.07-.8,4.41-2.34,11-4.9,15.46a1.24,1.24,0,0,1-.85.61l-.24,0a1.29,1.29,0,0,1-.78-.27,26.25,26.25,0,0,0-7.78-3.9c-1.4-.48-1.92-.66-2.2-1.32a1.35,1.35,0,0,1,0-1.08c6.42-13.52,4.67-35.74,4.66-36a1.22,1.22,0,0,1,.36-1,1.26,1.26,0,0,1,.89-.37h.13l13.83,1.15a1.26,1.26,0,0,1,1.08.82c.08.23,7.91,21.57,13.11,30.08,5.73-15.49,5.46-27.75,5.46-27.87a1.31,1.31,0,0,1,.35-.92,1.29,1.29,0,0,1,.9-.38l12-.1a1.31,1.31,0,0,1,.91.37,1.27,1.27,0,0,1,.36.92c0,.16-.15,4-4.23,24.53-.8,4-2.67,8.53-4.83,13.74a172.55,172.55,0,0,0-7.86,22,1.26,1.26,0,0,1-.91.89A.93.93,0,0,1,275.7,255.82Z"/><path d="M245.73,191.4h0l13.85,1.15a.44.44,0,0,1,.36.28c.09.25,8.88,24.23,14.1,31.64,6.43-16.45,6.11-29.62,6.1-29.75a.42.42,0,0,1,.12-.3.42.42,0,0,1,.3-.13l12-.1h0a.41.41,0,0,1,.29.13.42.42,0,0,1,.12.3c0,.15-.15,4-4.22,24.39-.78,4-2.64,8.42-4.79,13.6a175.65,175.65,0,0,0-7.89,22.06.41.41,0,0,1-.3.3h-.1a.42.42,0,0,1-.3-.12c-6-6.13-16.56-32.84-19.19-39.65-.54,3.68-2.11,12.67-5.29,18.2a.46.46,0,0,1-.29.2h-.08a.43.43,0,0,1-.26-.09,27,27,0,0,0-8-4c-1.2-.41-1.56-.53-1.69-.84a.55.55,0,0,1,0-.4c6.52-13.74,4.75-36.17,4.73-36.39a.46.46,0,0,1,.12-.34.47.47,0,0,1,.3-.12m0-1.68a2.1,2.1,0,0,0-2.09,2.27c0,.22,1.73,22.26-4.58,35.54a2.22,2.22,0,0,0,0,1.77c.42,1,1.23,1.28,2.69,1.78a25.21,25.21,0,0,1,7.54,3.77,2.09,2.09,0,0,0,1.3.45,1.81,1.81,0,0,0,.4,0,2.1,2.1,0,0,0,1.42-1c2.11-3.67,3.54-8.75,4.44-12.93,4.32,10.77,12.3,29.51,17.39,34.71a2.1,2.1,0,0,0,3.53-.92,171.46,171.46,0,0,1,7.81-21.84c2.19-5.27,4.07-9.81,4.89-13.94,4-20.21,4.24-24.27,4.25-24.66a2.13,2.13,0,0,0-.6-1.53,2.08,2.08,0,0,0-1.49-.63h0l-12,.1a2.1,2.1,0,0,0-2.08,2.16c0,.12.24,11.37-4.8,25.87-5.11-9.21-12.06-28.17-12.14-28.39a2.12,2.12,0,0,0-1.8-1.37l-13.85-1.15h-.18Z"/><path class="cls-3" d="M356.67,237.47l-.21,0c-2-.33-19.59-3.33-23.39-4.91-4.65-1.94-3.53-7.4-3.48-7.63l3.24-27.41a1.24,1.24,0,0,1,.72-1,1.21,1.21,0,0,1,.53-.12,1.25,1.25,0,0,1,.7.21l10.09,6.73a1.23,1.23,0,0,1,.55,1.2c-.07.53-1.58,12.64-1.89,17.37a8.11,8.11,0,0,0,.2,3.2l5.58.92,1.16-17.48a1.28,1.28,0,0,1,.63-1,1.32,1.32,0,0,1,1.2,0l7,3.52a1.27,1.27,0,0,1,.69,1.24l-2.1,24.06a1.27,1.27,0,0,1-.49.89A1.26,1.26,0,0,1,356.67,237.47Z"/><path d="M334.08,197.23a.39.39,0,0,1,.23.07L344.4,204a.43.43,0,0,1,.18.41c0,.12-1.57,12.54-1.88,17.41-.21,3.17.36,3.89.53,4l.09.06.11,0h.07l6.58,1.08,1.23-18.4a.43.43,0,0,1,.21-.34.54.54,0,0,1,.21,0,.41.41,0,0,1,.19,0l7,3.52a.44.44,0,0,1,.23.42l-2.1,24.06a.43.43,0,0,1-.16.29.43.43,0,0,1-.26.09h-.07c-.79-.13-19.42-3.28-23.21-4.86-4.06-1.69-3-6.63-3-6.68l3.25-27.48a.43.43,0,0,1,.24-.33.39.39,0,0,1,.18,0m0-1.68h0a2.21,2.21,0,0,0-.88.19,2.11,2.11,0,0,0-1.21,1.67l-3.24,27.39c-.48,2.23-.24,6.75,4,8.52,3.88,1.62,21.57,4.62,23.57,5l.35,0a2.16,2.16,0,0,0,1.29-.44,2.11,2.11,0,0,0,.8-1.48l2.1-24.06a2.08,2.08,0,0,0-1.15-2.06l-7-3.52a2.11,2.11,0,0,0-2,.06,2.06,2.06,0,0,0-1,1.67L348.53,225l-4.12-.68a11.76,11.76,0,0,1,0-2.41c.3-4.7,1.82-16.79,1.88-17.3a2.11,2.11,0,0,0-.92-2l-10.08-6.72a2.09,2.09,0,0,0-1.17-.35Z"/><path class="cls-3" d="M304.45,241.46a1.25,1.25,0,0,1-.83-2.2,17.84,17.84,0,0,0,4.15-4.65,6,6,0,0,1-2.86-4.27c-1.05-.08-3.19-.23-6.52-.44a5.42,5.42,0,0,1-4.21-2,7.3,7.3,0,0,1-1.06-5.44c0-.11,1.68-10.46,2.51-19.24.9-9.59,6.1-9.87,6.69-9.87H320c3.93,0,6.61.84,7.95,2.48a3.7,3.7,0,0,1,.86,2.9l-3.46,23.49c-.09.77-1.06,7.66-6.66,7.91a9.27,9.27,0,0,0-4.21,1.06,2.55,2.55,0,0,0-1.19,1.75c-1.3,5.87-7.7,8.22-8.43,8.47l-.12,0A1.29,1.29,0,0,1,304.45,241.46Zm11.19-20.91,1.46-15.48a.48.48,0,0,0-.11-.34.46.46,0,0,0-.34-.15h-9.59l-1.63,16h1.18l0-.43a2.28,2.28,0,0,1,1.21-1.89l1.63-.86a2,2,0,0,1,.94-.23,2.18,2.18,0,0,1,.81.17,2,2,0,0,1,1.14,1.41l.4,1.83Z"/><path d="M302.32,194.18H320c3.67,0,6.12.73,7.3,2.17a2.85,2.85,0,0,1,.68,2.22l-3.46,23.52s-.72,7-5.87,7.19a10.18,10.18,0,0,0-4.58,1.16,3.38,3.38,0,0,0-1.6,2.31c-1.25,5.61-7.62,7.76-7.89,7.86h-.13a.39.39,0,0,1-.36-.21.43.43,0,0,1,.09-.53c1.82-1.56,4.65-4.45,4.48-5.59,0-.11-.06-.22-.28-.32a5.11,5.11,0,0,1-2.66-3.88.7.7,0,0,0-.63-.58c-1-.07-3.18-.23-6.65-.44a4.68,4.68,0,0,1-3.59-1.69,6.64,6.64,0,0,1-.9-4.8c0-.1,1.69-10.49,2.52-19.29s5.3-9.11,5.85-9.11m3,27.21h1.46a.64.64,0,0,0,.65-.61l0-.62a1.44,1.44,0,0,1,.76-1.19l1.63-.86a1.27,1.27,0,0,1,.55-.13,1.2,1.2,0,0,1,.48.11,1.14,1.14,0,0,1,.65.8L312,221a.53.53,0,0,0,.52.41h3.36a.57.57,0,0,0,.57-.49l1.49-15.75a1.31,1.31,0,0,0-.33-1,1.27,1.27,0,0,0-1-.43h-9.77a.63.63,0,0,0-.63.58l-1.67,16.24a.76.76,0,0,0,.75.83m-3-28.89h0c-.67,0-6.55.3-7.52,10.63-.83,8.79-2.49,19.07-2.51,19.16a8.24,8.24,0,0,0,1.22,6.11,6.33,6.33,0,0,0,4.83,2.34l5.89.39a6.83,6.83,0,0,0,2.41,3.76,23.64,23.64,0,0,1-3.56,3.72,2.13,2.13,0,0,0-.45,2.64,2.07,2.07,0,0,0,1.82,1.05,2,2,0,0,0,.46-.05l.22-.05c.77-.27,7.58-2.77,9-9.09a1.74,1.74,0,0,1,.79-1.2,8.36,8.36,0,0,1,3.82-.95c4.78-.22,7-4.8,7.47-8.66l3.45-23.45a4.57,4.57,0,0,0-1-3.56c-1.53-1.88-4.35-2.79-8.6-2.79H302.32Zm5.5,12.92h8.4l-1.35,14.29h-1.43l-.26-1.17a2.79,2.79,0,0,0-1.56-2l-.07,0a3,3,0,0,0-1.14-.24,2.83,2.83,0,0,0-1.3.31l-1.66.87a3.21,3.21,0,0,0-.94.77l1.31-12.83Z"/><path class="cls-3" d="M385.18,233.08l-.34,0L382.6,233c-12.5-.61-19.57-1.13-19.56-4.66,0-3.93.2-9.17,1-11.81a3.11,3.11,0,0,1,3-2.19h.25l22.25,1.77a2.13,2.13,0,0,1,1.55.85,2.16,2.16,0,0,1,.37,1.75,6.74,6.74,0,0,1-1.85,3.3,7.15,7.15,0,0,1-5.11,2.14h0l-.55,0-12.55-.91v1a2.67,2.67,0,0,0,.94.32c.1,0,9.69,1,14.11,1l.95,0h0a1.25,1.25,0,0,1,1.32,1.12c.27,2.59-.17,4.44-1.3,5.51A3.28,3.28,0,0,1,385.18,233.08Z"/><path d="M367.07,215.13h.18l22.26,1.77a1.27,1.27,0,0,1,.94.51,1.36,1.36,0,0,1,.22,1.08,5.89,5.89,0,0,1-1.63,2.88,6.27,6.27,0,0,1-4.51,1.89l-.49,0-12.94-.94H371c-.26,0-.32.08-.37.41l0,1.79c.13.42,1.1.79,1.68.86.11,0,9.76,1,14.2,1l1,0h0a.41.41,0,0,1,.42.37c.24,2.31-.11,3.93-1.05,4.81a2.48,2.48,0,0,1-1.7.67h-.26l-2.28-.12c-11.68-.57-18.76-1.12-18.76-3.82,0-3.87.2-9,1-11.56a2.3,2.3,0,0,1,2.19-1.6m0-1.68h0a4,4,0,0,0-3.79,2.77c-.7,2.21-1.06,6.26-1.08,12.07,0,4.31,6.6,4.82,20.35,5.5l2.21.11a2.88,2.88,0,0,0,.42,0,4.11,4.11,0,0,0,2.85-1.13c1.34-1.26,1.87-3.34,1.57-6.2a2.11,2.11,0,0,0-2.09-1.89h-.12l-.9,0h-.09a8,8,0,0,0,3.85-2.17,7.62,7.62,0,0,0,2.06-3.71,3,3,0,0,0-2.67-3.61l-22.25-1.77-.32,0Z"/><path class="cls-3" d="M383.46,245.63a3.77,3.77,0,0,1-1.11-.16l-5.42-1.63c-5.34-1.6-11.4-3.41-12.95-3.82a3.22,3.22,0,0,1-2.2-1.77c-1.06-2.09,0-5,.08-5.35a1.27,1.27,0,0,1,1.19-.82h.14l20.3,2.53a4,4,0,0,1,3.79,4.29v2.88a3.83,3.83,0,0,1-3.82,3.84Z"/><path d="M363.05,232.92h.05l20.29,2.54a3.14,3.14,0,0,1,3.05,3.45v2.88a3,3,0,0,1-1.21,2.4,2.93,2.93,0,0,1-2.64.47c-6-1.78-16.26-4.9-18.4-5.45a2.41,2.41,0,0,1-1.66-1.34c-.91-1.79.08-4.56.12-4.68a.43.43,0,0,1,.4-.27m0-1.68a2.1,2.1,0,0,0-2,1.38c-.22.59-1.23,3.66,0,6a4,4,0,0,0,2.72,2.2c1.55.4,7.58,2.22,12.91,3.81l5.44,1.63a4.74,4.74,0,0,0,1.35.2,4.68,4.68,0,0,0,4.66-4.68v-2.88a4.78,4.78,0,0,0-4.52-5.12l-20.3-2.54Z"/><path class="cls-3" d="M443,267.65a5.84,5.84,0,0,1-1.93-.33l-29.67-10.09c-4.37-1.32-6.83-2.66-7.33-4-.85-2.28-1.4-11.57-1.59-15.46a.75.75,0,0,0-.6-.68l-2-.44L398.16,250a1.26,1.26,0,0,1-1.25,1.1h-.14c-.6-.06-6-.75-8.75-4.49a1.23,1.23,0,0,1-.25-.87c0-.09,0-.26.05-.53.73-8.57,2.53-23.73,6.4-28.87a2.86,2.86,0,0,1,2.3-1.15h14.35a7.73,7.73,0,0,1,7.15,9.33l-2.08,9.79a4,4,0,0,1-3.89,3.14h-.25a.24.24,0,0,0-.17.07.27.27,0,0,0-.05.19l1.49,8.8L436.21,254a1.12,1.12,0,0,0,.31.05,1,1,0,0,0,.58-.18.93.93,0,0,0,.18-.16l.06-.07a2.38,2.38,0,0,0,.33-.75,5.72,5.72,0,0,0,.11-1.71,1.36,1.36,0,0,1,0-.18c0-.05,0-.19-.06-.32s0-.24-.08-.34a1.77,1.77,0,0,0-.12-.42,2.14,2.14,0,0,0-.11-.31c0-.14-.08-.19-.1-.24s-.07-.15-.09-.18-.16-.26-.17-.29l-.06-.07-.12-.15-.25-.25-.19-.13a1.21,1.21,0,0,0-.32-.19l-15.43-6.33-.12-.05-.11,0a3.31,3.31,0,0,1-.4-.19,5.26,5.26,0,0,1-.63-.37c-.16-.1-.3-.21-.44-.31s-.37-.31-.55-.49l-.17-.18a5.2,5.2,0,0,1-.74-1c-.07-.13-.13-.25-.18-.37a2.38,2.38,0,0,1-.12-.27s0,0,0,0a5.77,5.77,0,0,1-.14-4l3.25-11.62c1-3,4-6.2,7.58-6.2a5.49,5.49,0,0,1,.8.06l24.37,2.41a1.3,1.3,0,0,1,.89.51,1.29,1.29,0,0,1,.2,1l-.89,6.29a4.86,4.86,0,0,1-4.76,4h0a4.73,4.73,0,0,1-.83-.07l-14.6-2.53c-.63,0-1.39,2-1.67,2.8l-.19.5a1.15,1.15,0,0,0,.65,1.46l14.37,5.53a8.06,8.06,0,0,1,5,8.65l-2.34,15.39a6,6,0,0,1-5.88,5.06Zm-37-40h.17a1.31,1.31,0,0,0,1.23-.87l.12-.37a1.24,1.24,0,0,0-.14-1.14,1.28,1.28,0,0,0-1-.58l-4.32-.3c-.11.56-.29,1.39-.55,2.64Z"/><path d="M410.87,216.05a6.83,6.83,0,0,1,5.07,2.71,6.91,6.91,0,0,1,1.26,5.61l-2.09,9.78a3.14,3.14,0,0,1-3.06,2.48h-.25a1,1,0,0,0-.81.38,1,1,0,0,0-.24.86l1.58,9.31L436,254.77a1.88,1.88,0,0,0,.57.09,1.81,1.81,0,0,0,1.05-.33,1.63,1.63,0,0,0,.39-.35h0a3.16,3.16,0,0,0,.51-1.08,6.73,6.73,0,0,0,.13-2V251c0-.17-.05-.34-.08-.5s0-.26-.08-.38a4,4,0,0,0-.15-.49,2.92,2.92,0,0,0-.14-.38,1.43,1.43,0,0,0-.13-.28,1,1,0,0,0-.1-.21c-.05-.08-.09-.16-.14-.23l-.06-.09-.19-.26-.07-.08-.28-.29-.22-.16a2.54,2.54,0,0,0-.53-.31L421,241h0l-.19-.08a2.74,2.74,0,0,1-.33-.15c-.16-.08-.36-.2-.57-.33l-.37-.27a6,6,0,0,1-.48-.42l-.14-.15a5.51,5.51,0,0,1-.63-.89c-.06-.11-.11-.22-.16-.33a.87.87,0,0,1-.1-.24h0a5,5,0,0,1-.13-3.41L421.11,223c1-2.94,3.74-5.58,6.77-5.58a5.34,5.34,0,0,1,.69.05L453,219.9a.48.48,0,0,1,.29.17.43.43,0,0,1,.06.33l-.9,6.36a4,4,0,0,1-3.93,3.26,4.11,4.11,0,0,1-.69-.06l-14.59-2.53H433c-1.33,0-2.1,2.53-2.61,3.83a1.93,1.93,0,0,0,0,1.51,2,2,0,0,0,1.09,1.05l14.37,5.53a7.21,7.21,0,0,1,4.5,7.74l-2.34,15.38a5.15,5.15,0,0,1-5.05,4.35,5.31,5.31,0,0,1-1.66-.28L411.8,256.47c-.13-.05-6.26-1.79-6.91-3.51-.81-2.14-1.35-11.35-1.54-15.2a1.63,1.63,0,0,0-1.26-1.47l-2.93-.63-1.83,14.26a.43.43,0,0,1-.42.37h-.05c-.22,0-5.57-.62-8.17-4.16a.47.47,0,0,1-.08-.3c.11-1,1.64-22.8,6.28-29h0a2,2,0,0,1,1.62-.81h14.35m-4.64,12.46a2.13,2.13,0,0,0,2-1.44l.13-.37a2.12,2.12,0,0,0-.24-1.88,2.14,2.14,0,0,0-1.63-.95l-5.06-.35c-.1.52-.33,1.66-.88,4.24l5.37.73a1.42,1.42,0,0,0,.29,0m4.64-14.15H396.52a3.71,3.71,0,0,0-3,1.51c-3.78,5-5.65,18.7-6.55,29.28,0,.26,0,.42,0,.49a2.12,2.12,0,0,0,.41,1.49c3,4,8.68,4.75,9.33,4.82h.23A2.1,2.1,0,0,0,399,250.1l1.59-12.41,1.08.23c.25,4.88.78,13.34,1.65,15.63.24.65.89,2.38,7.87,4.49l.08,0,29.56,10.06a7,7,0,0,0,2.2.37,6.83,6.83,0,0,0,6.71-5.77l2.34-15.39a8.91,8.91,0,0,0-5.55-9.56l-14.37-5.53a.27.27,0,0,1-.16-.14.34.34,0,0,1,0-.26c.06-.13.12-.3.19-.49a9.83,9.83,0,0,1,1-2.21l14.3,2.48a5.47,5.47,0,0,0,1,.08,5.71,5.71,0,0,0,5.58-4.62s0-.05,0-.08l.9-6.32a2.06,2.06,0,0,0-.33-1.54l0-.06a2.16,2.16,0,0,0-1.39-.84h-.09l-24.38-2.41a6.51,6.51,0,0,0-.88-.06c-4.05,0-7.28,3.39-8.37,6.74a.19.19,0,0,0,0,.07l-.79,2.81.14-.66A8.59,8.59,0,0,0,411,214.37Zm-8.28,12c.08-.39.15-.74.22-1l3.59.25a.47.47,0,0,1,.35.2.45.45,0,0,1,0,.39l-.13.4a.46.46,0,0,1-.43.29h-.07l-3.57-.49Zm9.94,11.95a4.81,4.81,0,0,0,3.39-1.94,6.69,6.69,0,0,0,.49,2.37l0,0a3.27,3.27,0,0,0,.14.33l.19.38a6.82,6.82,0,0,0,.86,1.21l.06.06.14.15a7.56,7.56,0,0,0,.63.56,5.22,5.22,0,0,0,.48.34,7.83,7.83,0,0,0,.75.45,4.29,4.29,0,0,0,.46.2l.17.07h0l.07,0,15.42,6.33.09,0,.19.14.15.14.07.1.05.07,0,.06a.56.56,0,0,0,.05.08l.05.09h0v0l.06.12a1.54,1.54,0,0,0,.08.19l.06.17,0,.08c0,.1.06.18.07.24a.36.36,0,0,0,0,.1l.06.26a2.8,2.8,0,0,1,.05.34v.1a5.22,5.22,0,0,1-.08,1.42,1.61,1.61,0,0,1-.18.45l0,0a.17.17,0,0,1-.12.05h0l-22.65-7.28-1.29-7.6Z"/><path class="cls-3" d="M220.34,228.6a21.77,21.77,0,0,1-5.42-.71,74.87,74.87,0,0,0-17-2.32l-5.87-.17-.92,0c-5.1-.17-11.44-.39-17-.39-2.06,0-3.92,0-5.53.09-.75,0-1.47,0-2.16,0a32.28,32.28,0,0,1-9.66-1.25c-5-1.6-6.09-4.21-6.25-4.72-2.43-5.44-.67-15.46.6-20.94a6.6,6.6,0,0,1,6.39-5.11l36.6-.38h.12a1.24,1.24,0,0,1,.85.39,1.32,1.32,0,0,1,.35,1c-1,10.29-9.57,10.41-9.66,10.41H174.06c-12,0-12,1-12.19,5.51a4.15,4.15,0,0,0,.91,3.23,2.73,2.73,0,0,0,1.78.65h.15l35.61-.08a2.24,2.24,0,0,0,2.18-2c.24-2.68.89-9.49,1.65-14.91.65-4.49,4.48-7.5,9.55-7.5l.79,0c2.75.17,5.65.26,8.61.26,7.57,0,13.54-.57,15.18-.74l.23,0a2.18,2.18,0,0,1,1.43.56,2.12,2.12,0,0,1,.7,1.58c0,.33,0,.74,0,1.22V193a3.1,3.1,0,0,1-1.28,2.12,4.54,4.54,0,0,0-.8.84c0,1.24,0,2.73,0,4.31V201c.09,5.58.19,12.53-1.37,19-.4,1.7-2.41,2.86-4.18,3.88l-.28.16a14,14,0,0,0-1.26.79A17.84,17.84,0,0,1,220.34,228.6Zm-3.4-26.13a1.87,1.87,0,0,0-1.9,1.75l-.89,12a2.46,2.46,0,0,0,.6,1.79,2.51,2.51,0,0,0,1.66.85l8.27-.48a3,3,0,0,0,1.57-1.49,38.53,38.53,0,0,0,1.65-10.95,15.17,15.17,0,0,0-.25-3.09,1.13,1.13,0,0,0-.18-.49l-10.34.12Z"/><path d="M238.51,189.69a1.29,1.29,0,0,1,.86.34,1.27,1.27,0,0,1,.43,1c0,.52,0,1.22,0,2,0,.57-.51,1-1.05,1.54s-1,.92-1,1.34c0,1.5,0,3.24,0,5.08.08,5.54.19,12.44-1.34,18.82-.32,1.35-2.18,2.42-3.81,3.36a17.83,17.83,0,0,0-1.62,1,17.11,17.11,0,0,1-10.64,3.58,20,20,0,0,1-5.2-.69A76,76,0,0,0,198,224.73c-2.12,0-4.4-.13-6.78-.2-5.53-.19-11.59-.39-17-.39-2,0-3.84,0-5.56.09-.74,0-1.45,0-2.13,0a30.91,30.91,0,0,1-9.41-1.21c-4.83-1.53-5.64-4-5.69-4.17-2.37-5.3-.64-15.12.61-20.5a5.78,5.78,0,0,1,5.58-4.46l5.14-.05,31.51-.33h.06a.41.41,0,0,1,.26.15.54.54,0,0,1,.11.32c-.93,9.52-8.75,9.63-8.83,9.63H174.06c-11.92,0-12.82.87-13,6.32a4.92,4.92,0,0,0,1.17,3.87,3.5,3.5,0,0,0,2.36.88h.15l35.61-.08a3.09,3.09,0,0,0,3-2.81c.3-3.36.92-9.77,1.65-14.87.58-4.07,4.11-6.78,8.71-6.78l.73,0c3,.19,5.95.26,8.67.26a150.62,150.62,0,0,0,15.27-.75h.14m-21.38,11.95h-.19a2.72,2.72,0,0,0-2.74,2.53l-.89,12a3.33,3.33,0,0,0,3.09,3.55l8.33-.49h0c.74,0,2-1.23,2.28-2.05a39.18,39.18,0,0,0,1.7-11.22,16,16,0,0,0-.27-3.27c-.15-.73-.46-1.12-.91-1.15l-10.43.12M238.51,188l-.33,0c-1.62.17-7.56.74-15.08.74-2.94,0-5.82-.09-8.56-.26l-.84,0c-5.5,0-9.67,3.3-10.38,8.22-.77,5.44-1.41,12.27-1.66,15a1.4,1.4,0,0,1-1.37,1.28L164.7,213h-.11a1.79,1.79,0,0,1-1.23-.43,3.61,3.61,0,0,1-.65-2.58c.16-4.16.18-4.7,11.35-4.7h11.77c.09,0,9.43-.13,10.5-11.14a2.19,2.19,0,0,0-.48-1.56l-.11-.12a2,2,0,0,0-1.45-.64h-.19l-31.4.33-5.14.05a7.44,7.44,0,0,0-7.2,5.76c-1.57,6.79-2.94,16-.54,21.49.28.78,1.61,3.53,6.75,5.17a33.34,33.34,0,0,0,9.92,1.28c.71,0,1.45,0,2.19,0,1.6-.06,3.46-.09,5.5-.09,5.5,0,11.84.22,16.93.39l.91,0,5.89.17a73.29,73.29,0,0,1,16.8,2.29,22,22,0,0,0,5.63.74A18.68,18.68,0,0,0,232,225.51a13.61,13.61,0,0,1,1.18-.74l.26-.15c1.93-1.11,4.11-2.37,4.59-4.42,1.58-6.6,1.48-13.6,1.39-19.23v-.66c0-1.45,0-2.83,0-4,.13-.14.33-.33.46-.45l.06,0a3.87,3.87,0,0,0,1.55-2.71v-.85c0-.48,0-.9,0-1.25a3,3,0,0,0-3-3Zm-21.38,15.31h0l9.71-.11a15.65,15.65,0,0,1,.2,2.73,37.4,37.4,0,0,1-1.61,10.68,2.81,2.81,0,0,1-.87.92l-8.15.48a1.66,1.66,0,0,1-1-.56,1.62,1.62,0,0,1-.41-1.19l.9-12a1,1,0,0,1,1.06-1h.19Z"/><path class="cls-3" d="M228.53,312.21a1.27,1.27,0,0,1-1-.48l-17.91-23a1.25,1.25,0,0,1-.25-.95,1.28,1.28,0,0,1,.49-.84c40.58-30,45.84-61.51,45.89-61.82a1.25,1.25,0,0,1,1.13-1.07H257a1.28,1.28,0,0,1,1.19.85c7.26,21.27,16.13,33.61,16.22,33.73a1.25,1.25,0,0,1,.13,1.26C259.71,293,229.5,311.83,229.19,312A1.3,1.3,0,0,1,228.53,312.21Z"/><path d="M257,224.9a.41.41,0,0,1,.39.29c7.31,21.4,16.25,33.82,16.34,33.95a.42.42,0,0,1,.05.42c-14.74,32.8-44.74,51.56-45,51.75a.43.43,0,0,1-.22.06.44.44,0,0,1-.33-.16l-17.91-23a.43.43,0,0,1-.08-.31.41.41,0,0,1,.17-.28c41-30.37,46.16-62.06,46.21-62.38a.41.41,0,0,1,.38-.35h0m0-1.68h-.2a2.09,2.09,0,0,0-1.88,1.78c-.05.31-5.39,31.52-45.55,61.27a2.13,2.13,0,0,0-.84,1.41,2.1,2.1,0,0,0,.43,1.57l17.9,23a2.09,2.09,0,0,0,1.66.81,2.12,2.12,0,0,0,1.1-.31c.31-.19,30.74-19.21,45.69-52.49a2.11,2.11,0,0,0-.22-2.1c-.09-.12-8.92-12.47-16.1-33.5a2.12,2.12,0,0,0-2-1.43Z"/><path class="cls-4" d="M251,237.57s12.4,42.38-20.17,69.74l2.87,2.94L261.9,287l13.79-24.51-18-31.31Z"/><path class="cls-3" d="M340.3,280.79c-.66,0-1.31,0-1.93-.09a10.21,10.21,0,0,1-7.87-5.22,246.72,246.72,0,0,1-14.4-31.32,3,3,0,0,0-.35-.66l-2.92,1.62a11.49,11.49,0,0,1-5.53,1.42c-.26,0-.51,0-.77,0l-11.91-.79a4.56,4.56,0,0,1-3.11-1.55l-2.09-2.42-.61.29.08,4.7a2,2,0,0,1-1.54,2,2.29,2.29,0,0,1-.51.06,2,2,0,0,1-1.08-.32c-.46-.3-.77-5.39-.77-5.39a15.91,15.91,0,0,1,1.34-10.14l2.42-6.06a1.25,1.25,0,0,1,.87-.61l.23,0a1.29,1.29,0,0,1,.79.28l.72.59a5.26,5.26,0,0,1,1.95,4.1v6.37a3.37,3.37,0,0,0,.49,1.75l.47.79a2.67,2.67,0,0,0,2.13,1.28l10.05.63.56,0a8.93,8.93,0,0,0,4.4-1.16l1.82-1a1.85,1.85,0,0,0,.92-1.33l.67-4.41a2.8,2.8,0,0,1,2.08-2.28,25.09,25.09,0,0,1,6.24-.75,27.07,27.07,0,0,1,12.75,3.18,12.42,12.42,0,0,1,5.45,5.82l11.43,25,.05.12c0,.06,1.82,6.35-.88,10.87a8.69,8.69,0,0,1-5.82,4A26.76,26.76,0,0,1,340.3,280.79Z"/><path d="M289.85,227.07a.41.41,0,0,1,.26.09l.72.58a4.45,4.45,0,0,1,1.64,3.45v6.37a4.2,4.2,0,0,0,.61,2.18l.47.79a3.51,3.51,0,0,0,2.79,1.69l10.05.63.62,0a9.79,9.79,0,0,0,4.81-1.26l1.83-1a2.66,2.66,0,0,0,1.33-1.93l.68-4.41a1.94,1.94,0,0,1,1.44-1.6,25.12,25.12,0,0,1,6-.72A26.33,26.33,0,0,1,335.5,235a11.65,11.65,0,0,1,5.08,5.43l11.43,25c.09.31,1.67,6.09-.79,10.21a7.88,7.88,0,0,1-5.28,3.62,25.8,25.8,0,0,1-5.64.67,18.49,18.49,0,0,1-1.85-.09,9.38,9.38,0,0,1-7.22-4.79,247,247,0,0,1-14.35-31.21,3.59,3.59,0,0,0-.52-.94.7.7,0,0,0-.56-.28.66.66,0,0,0-.34.08l-3,1.67a10.68,10.68,0,0,1-5.12,1.31l-.71,0-11.92-.8a3.75,3.75,0,0,1-2.53-1.26L289.91,241a.57.57,0,0,0-.42-.19.69.69,0,0,0-.24.05l-1,.46a.56.56,0,0,0-.32.52l.08,4.87a1.15,1.15,0,0,1-.89,1.14,1.87,1.87,0,0,1-.32,0,1.11,1.11,0,0,1-.62-.19,1.13,1.13,0,0,1-.5-.74l-1.27-6.63a8.78,8.78,0,0,1,1-6l4-7.09a.42.42,0,0,1,.29-.21h.08m0-1.69a1.5,1.5,0,0,0-.37,0,2.09,2.09,0,0,0-1.46,1l-4,7.1a10.47,10.47,0,0,0-1.18,7.15l1.27,6.63a2.83,2.83,0,0,0,2.77,2.29,3.42,3.42,0,0,0,.7-.08,2.85,2.85,0,0,0,2.19-2.81l-.06-3.39,1.2,1.39a5.44,5.44,0,0,0,3.69,1.84l11.92.79c.27,0,.55,0,.82,0a12.28,12.28,0,0,0,5.93-1.52l2.17-1.19a247.23,247.23,0,0,0,14.36,31.21,11.08,11.08,0,0,0,8.53,5.66q1,.09,2,.09a28,28,0,0,0,6-.71,9.46,9.46,0,0,0,6.35-4.4c2.89-4.84,1-11.27,1-11.54a1.43,1.43,0,0,0-.08-.22l-11.43-25a13.27,13.27,0,0,0-5.83-6.21,27.83,27.83,0,0,0-13.14-3.29,26.52,26.52,0,0,0-6.45.78,3.64,3.64,0,0,0-2.7,3l-.67,4.41a1,1,0,0,1-.5.72l-1.82,1a8.12,8.12,0,0,1-4,1.05l-.51,0-10.05-.62a1.84,1.84,0,0,1-1.46-.89l-.47-.79a2.49,2.49,0,0,1-.37-1.31v-6.37a6.08,6.08,0,0,0-2.26-4.75l-.72-.59a2.13,2.13,0,0,0-1.32-.47Z"/><path class="cls-4" d="M338.45,279.86s16.35-3.62-2.06-30.62c-3.15-4.62-11.87-12.61-20.46-15.73l.09-1.62,6.61-.72,7.65,1.74,6.1,2.62,6.79,7.21,4.81,7.83,5.5,16.24,1.58,7.17-5.57,5.43-4.31,1Z"/><path class="cls-4" d="M400.6,227.62l-2.39-.2s1.44-.47,1.66-1.61.4-2.06.4-2.06,0-.33.21-.36a1.61,1.61,0,0,1,.94.3Z"/><path class="cls-4" d="M317.8,239.91a14.62,14.62,0,0,0,.76,8.24l-2.63-4,.87-2.36Z"/><path d="M278,262.33l-15.83,26.35L238.5,310.24l-2.87-1.6a124,124,0,0,0,35.72-39.92,5,5,0,0,0-.18-5.12c-8.26-12.74-12.56-23-14.72-29.3a.3.3,0,0,0-.56,0c-12.16,28.39-45.68,53.64-45.68,53.64l-1-.31L221,272.29l29.29-35.66,4.4-8.25h0c-.2-.86-.27-1.31-.27-1.31l2.32-5.14,8.34,20.17,10.67,17.65-.72,1.64Z"/><path d="M284.81,242.27c-.52-5.64,3.2-16,6.63-13.93,6.55,4-2.78-3.44-2.78-3.44l-6.32,13.63S285,244.41,284.81,242.27Z"/><path d="M454.66,263.82s5.3-32.23,4.79-42.11l-1-3.85L454.1,231l-1.4,9.88Z"/><path d="M203.35,211.66a7.63,7.63,0,0,0,1.55,6s-2.35-3-4.51-3l2.28-4Z"/><path d="M256.62,216.4,253.12,206s3.18,9.44,2.3,13.76Z"/><path d="M274,224.38a5.67,5.67,0,0,0,3.34,1.94s-2.7-1.85-3-3.3Z"/><path d="M309.41,221.4H306.2l.55-1.07S307.32,221.2,309.41,221.4Z"/><path d="M349.49,226.9l2.7.45s-1.07-.18-2.38-2.47Z"/><path d="M372.59,225.4a41,41,0,0,0-4.31,0s2.76-.47,3-1Z"/><path d="M399.86,235.82l-2.15-.46a3.41,3.41,0,0,1,2,1.94Z"/><path d="M290.31,241.5a6.12,6.12,0,0,1-1.07-3.45s-.63,3,0,4S290.31,241.5,290.31,241.5Z"/><path class="cls-3" d="M355.6,236.45l2.41.46a2.25,2.25,0,0,1-.81-1.9C357.18,233.64,355.6,236.45,355.6,236.45Z"/><path d="M226.36,201.54s3.36-.71,4.86-2.62c0,0-3,4.19-2.5,5.81Z"/><path d="M238.19,195.11a6.77,6.77,0,0,0-2.65,2.31s2.35-1.78,2.89-1.49Z"/><path d="M216.4,219.7a16.63,16.63,0,0,1-4.37-.18,11.78,11.78,0,0,0,4-.37Z"/><path d="M315.88,221.4a1.28,1.28,0,0,1,.85.71,3.65,3.65,0,0,1-.23-1.67Z"/><path d="M316.65,203.74s1.41,0,1.79-.86a5.75,5.75,0,0,0-.5,2.27Z"/><path d="M434.24,227.62a27.3,27.3,0,0,1-4.51-1.32,9.2,9.2,0,0,1,3.11,2.22Z"/><path d="M352.47,274s.28-4.15-4.49-5c0,0,4.61.88,5.5,0Z"/><path d="M412.25,246.75s.31,1.86.38,3.12c0,0-.16-2.81.65-3.29Z"/><path d="M431.17,252s2.76.74,3.71.86c0,0-2.26-.79-2.18-2.54Z"/><path d="M170.07,203.69a43.79,43.79,0,0,1-10.3-.47,25,25,0,0,1,6.24,2.35Z"/><path d="M56.67,219.1a5.79,5.79,0,0,1-1.26-2.54s.16,2-.17,2.35Z"/><path d="M55.76,208.2a21.69,21.69,0,0,1-.06,3.23s-.13-2.16-.69-2.14l-.14-.89Z"/><path d="M55.36,190.34s.16.58,1.61.58l-1.82.37Z"/><path d="M64.08,190.14a9.52,9.52,0,0,1-3.59.69s3.85-.08,4.32,0l-.59-.69Z"/><path d="M228.38,315.12s-13.93-21.47-10.74-17.46c2.16,2.71,14.55,11,19.41,7.63,3-2.2,3-3.68,3-3.68-.36,5.31-9.05,12.56-9.05,12.56Z"/><path d="M348.74,280.44s1.68-3.94.52-4.67a4.46,4.46,0,0,0,2.89,0Z"/><path d="M342.2,244s-5.28-10.63-20.54-12c0,0-5.56-.46-6,2.18a2,2,0,0,1,.63-2.84,8.74,8.74,0,0,1,3.21-.9l9.56.77,8.27,3.08,7.84,5.95Z"/><path d="M341.63,242.74l10.06,22a12.76,12.76,0,0,1-2.19,13.36c-2,2.33-8.33,2.1-10.64,1.79l1.94,4.43h7.94l7.61-5.36L358,269l-5.42-15-5.17-12.19-2.88-2.07Z"/><path d="M314.88,243a10.91,10.91,0,0,0,3-3.33s-1.53,2.81-1,4.15l1.68,4.29Z"/><path class="cls-4" d="M215.18,219.38a15.57,15.57,0,0,1-3.15.14c-1.51-.12-4.77-2.21-3.15-8.91s.49-12.15,17.86-11.66c0,0,3.36.36,4.48,0h0a6.74,6.74,0,0,1-4.78,2.6h-.07c-2.16.15-9.75.11-9.75.11a2.76,2.76,0,0,0-2.4,2.2l-.91,12.66S213.69,219.07,215.18,219.38Z"/><path class="cls-4" d="M237.73,195.91h0a3.93,3.93,0,0,0-2.86,3.1,60.9,60.9,0,0,0-.34,11.6A25.2,25.2,0,0,1,231,224.18s.89-.59,1.45-.91l1.48-.88s2.3-1.43,2.42-2.34,1.81-6.34,1.41-11.86A113.79,113.79,0,0,1,237.73,195.91Z"/><path d="M236.27,220.27a42.75,42.75,0,0,0,1.48-8.47c.25-5-.53-10.34,0-15.89,0,0,2.46,7.53,2.81,7.73s0,6.4,0,6.4Z"/><path class="cls-4" d="M159.77,203.22s-2.94-1.12.95-2.31c3.07-.94,13.58-.4,17.87-.13a16,16,0,0,0,4.25-.3c3.93-.81,11.34-2.87,11.39-6.93,0,0,.38-.06.42.41s-.45,8.5-8.42,9.65l-14.13,0s-2.64,0-5.79.15A31.51,31.51,0,0,1,159.77,203.22Z"/><path class="cls-4" d="M226.51,226.67s-7.9.82-12.3-1.07A78.25,78.25,0,0,0,187.09,220a148.47,148.47,0,0,0-20.94,1.28c-6,.77-11.19,1.1-14.63-2.08l-.65,3.43,4.35,3.41,12.05,1,9.8.28,10-.28s8-.2,8.76-.48a31.49,31.49,0,0,1,6.87,0c.34.2,5,.76,5,.76s9.33.27,12.44.38A16.82,16.82,0,0,0,226.51,226.67Z"/><path d="M151.39,218.89s1.38,5.39,16,5.37,32.16.4,35.31.72a66.58,66.58,0,0,1,11.56,1.86,25.44,25.44,0,0,0,6.14.92c-1,1.36-10.84,3.41-10.84,3.41l-59-2.24a23.76,23.76,0,0,0,1-4c-.15-.39-1.31-4.63-1.31-4.63l.88-1.12Z"/><path class="cls-4" d="M253.24,206.38s3.19,9,2.18,13.39-2.2,9.52-4.5,13.64a.43.43,0,0,1-.63.12,31.75,31.75,0,0,0-8-4l-1.38-.53a.62.62,0,0,1-.25-.82c.26-.56.43-.95.43-.95S252.81,227.83,253.24,206.38Z"/><path class="cls-4" d="M261.76,228.89s5.14,11.73,6.86,15,5.15,9.61,6.78,10.93a.43.43,0,0,0,.66-.08s5-13.21,7.5-19.34c1.47-3.55,3-8.52,4.36-13.09a91.17,91.17,0,0,0,2.39-10.59c.94-5.66,2.69-17.14,2.69-17.14s0-.42-.37-.42h-1.92s-8.6,42.07-15.47,44.65-14.19-11.64-14.19-11.64Z"/><path class="cls-4" d="M277.36,226.32s-2-4.07.09-12.25c0,0-2.31,8.09-3,9.33A8.29,8.29,0,0,0,277.36,226.32Z"/><path class="cls-4" d="M312.52,221.4h-2a.9.9,0,0,0,.6-1.07c-.13-.88-.09-1.92-1.88-1.86l.71-.38a1.28,1.28,0,0,1,1,0,1.13,1.13,0,0,1,.62.81L312,221A.56.56,0,0,0,312.52,221.4Z"/><path d="M305.9,231a9.39,9.39,0,0,1-.44-3.77s-1.4,2.57.11,4.68Z"/><path class="cls-4" d="M304.58,240.6a.45.45,0,0,1-.49-.19.41.41,0,0,1,.09-.53,45.44,45.44,0,0,0,3.21-3.22,5.54,5.54,0,0,0,1.25-2.07l0-.48s-3.49-.94-3.21-6.9c0,0,.29-1.08,1.34,0s6.86.24,6.86.24A8.77,8.77,0,0,0,320,220a118.21,118.21,0,0,0,1.13-13.44,17.46,17.46,0,0,1,1.54-6.75c1-2.17,2.52-4.16,4.59-3.46,0,0,.93.47.68,2.21L325,219s-.54,3.74-.61,4.05-1.3,5.19-4.21,6a8.1,8.1,0,0,1-2.3.34,10.33,10.33,0,0,0-3.56,1,3.36,3.36,0,0,0-1.69,2C312.22,233.63,311.49,237.94,304.58,240.6Z"/><path class="cls-4" d="M305.75,221.4s-4-.06-4.92,1a19.16,19.16,0,0,0,1.84-7.61c.05-4.15.36-8.57.36-8.57s-.24-2.47,3.85-2.47c0,0-.67-.1-.67.95l-.88,8.59-.45,4.37-.3,2.91S304.39,221.4,305.75,221.4Z"/><path class="cls-4" d="M343.23,225.87s-6-.92-4.87-8.94c1.21-8.36,1.58-15.88,1.58-15.88l4.46,3a.43.43,0,0,1,.18.45c0,.33-1.44,12.46-1.44,12.46l-.47,5.46S342.46,225.11,343.23,225.87Z"/><path class="cls-4" d="M358,236.91l-15.86-3s12.63.89,12.58-5.83.58-15.51,4.23-16.35a.45.45,0,0,1,.23.42l-.62,7.1-.33,3.76-.93,10.71-.09,1.61A2.51,2.51,0,0,0,358,236.91Z"/><path class="cls-4" d="M368.28,225.4a1.72,1.72,0,0,0,1.09-1.51c0-1.23,0-2.57,1.69-2.55,2.5,0,10.9.82,13-.29s4.57-4.43,5.72-4.08a1.26,1.26,0,0,1,.86,1.53,6.54,6.54,0,0,1-1.43,2.67,6.22,6.22,0,0,1-4.2,2.08,17.09,17.09,0,0,1-2.63-.12l-11.5-.82s-.34,0-.33.41l0,1.68a.46.46,0,0,0,.2.37l-.26.09A13.43,13.43,0,0,1,368.28,225.4Z"/><path class="cls-4" d="M364.92,229.81s17,2,19.21,0,2.47-3.58,3.35-3.42c0,0,.43-.18.48.7s0,1.9,0,1.9-.08,3.25-2.78,3.25-10.89-.62-10.89-.62a43.73,43.73,0,0,1-6.89-.91A11.51,11.51,0,0,1,364.92,229.81Z"/><path class="cls-4" d="M386.17,237.32c-.84-1-2.5,3-3.8,3.58-1.71.83-19.12-2.64-20.15-4a2.48,2.48,0,0,0,1,1.88,6,6,0,0,0,1.79.65c4.74,1.22,17.57,5.23,17.57,5.23a3,3,0,0,0,3.7-2C386.78,241.54,386.65,237.88,386.17,237.32Z"/><path class="cls-4" d="M285.43,245.5l.35,1.72a1.14,1.14,0,0,0,1.19.7A1.18,1.18,0,0,0,288,247s0-.3,0-.65-.07-4.57-.07-4.57a.61.61,0,0,1,.26-.38L289,241s-.24-1.72,1.16-6.55c0,0-4.12,3.31-5.32,7.79Z"/><path class="cls-4" d="M291.49,242.86a5.82,5.82,0,0,0,3.51,2.3c1.43.18,5.62.47,5.62.47l6,.18a11.84,11.84,0,0,0,6.43-1.67,12.37,12.37,0,0,0,2.76-1.87,12.45,12.45,0,0,1-6.69,2.21c-4.23.23-11.76.15-14.25-.45A13.31,13.31,0,0,1,291.49,242.86Z"/><path class="cls-4" d="M398.52,235.77a3.58,3.58,0,0,1,.57.48c-.23,1.77-.86,6.74-.88,6.93-.2,1.9-.36,2.89-.51,3.87-.09.6-.14,1-.21,2s-.23,1.29-.62,1.24c-6.81-1-8.26-4.34-8.26-4.34l.06-.71c5.61.48,7.89-4.37,8.84-6.39a3.69,3.69,0,0,0,.2-3.49A2.7,2.7,0,0,1,398.52,235.77Z"/><path d="M401.2,227.85l-3-.43a7.36,7.36,0,0,0,3.24-.33Z"/><path d="M401.81,223.55l-1.33-.16s.93.05,1.26.6Z"/><path class="cls-4" d="M407.17,235.51a5.83,5.83,0,0,0,5.78-2.94,19.11,19.11,0,0,0,2.28-9.32c-.71-5.9-4.36-7.2-4.36-7.2a5.94,5.94,0,0,1,4.63,2.19,6.52,6.52,0,0,1,1.83,5.15l-1.73,8.47-.49,2.29a3,3,0,0,1-3.25,2.47A17,17,0,0,1,407.17,235.51Z"/><path d="M410.85,238.46s-.07-1.72-3.68-3a26.8,26.8,0,0,0,4.69,1.11Z"/><path class="cls-4" d="M402.1,236.3s3.39.82,4.23,5.65.37,10.51,6.95,11.91,23.56,6.91,27.79,6.17c5.19-.92,8.92-7.62,9.42-14.12,0,0-.5,4.78-1.15,8.27-.4,2.14-1.32,8.59-1.32,8.59s-.52,3.6-5,4a5.31,5.31,0,0,1-2-.41l-8.8-3-24.1-8.25s-2.66-.94-3.13-2a11,11,0,0,1-.66-3.12c-.1-.74-.52-5.16-.52-5.16l-.48-7.34S403.27,236.67,402.1,236.3Z"/><path class="cls-4" d="M429.73,226.3s14.42,3.11,19.19.3c2.05-1.21,2.13-2.79,2.28-4.31-.1-2.52-3.8-2.94-3.8-2.94l5.5.55a.42.42,0,0,1,.42.5l-.87,6.12s-.63,4.14-4.82,3.42S431.6,227.47,429.73,226.3Z"/><path class="cls-4" d="M438,254.17h0a0,0,0,0,1,0,0Z"/><path class="cls-4" d="M442.17,247.89a4.28,4.28,0,0,0-3.17,3.93,5.06,5.06,0,0,1-1,2.36,3.3,3.3,0,0,0,.51-1.09,6.73,6.73,0,0,0,.14-2s0-.08,0-.11a4.71,4.71,0,0,0-.08-.5c0-.13,0-.25-.08-.38a4,4,0,0,0-.15-.49,3.57,3.57,0,0,0-.14-.38,1.39,1.39,0,0,0-.12-.28l-.11-.21c-.05-.08-.09-.16-.14-.23l-.06-.09-.19-.27-.07-.07s0,0,0,0a.17.17,0,0,1-.05-.2,4.09,4.09,0,0,1-.42-.2,4.68,4.68,0,0,1-.54-.3L421,241h0a1,1,0,0,1-.19-.08,2.74,2.74,0,0,1-.33-.15,6.11,6.11,0,0,1-1.42-1l-.14-.16a4.14,4.14,0,0,1-.63-.87l-.16-.34a1,1,0,0,1-.11-.24h0a14.26,14.26,0,0,0,4.29,2.74c2.56,1,8.38,3.24,11.05,4.2S439.7,247.94,442.17,247.89Z"/><path d="M436.43,247.32a10.25,10.25,0,0,0,3.05,1s-1.78.21-1.4,1.38Z"/><path class="cls-4" d="M430.56,233s-1.36-1.6-.29-6.39a10.15,10.15,0,0,1,1.88,1.26A23.33,23.33,0,0,0,430.56,233Z"/><path class="cls-4" d="M163.17,214.34s-2.11.49-2.45.59c0,0,1.28-.23.86-1.93C161.58,213,162.23,214.21,163.17,214.34Z"/><path d="M163.82,214.63a8.81,8.81,0,0,0-3.1.3,8,8,0,0,0,3.15-1.47Z"/><path class="cls-4" d="M117,211.3h-7a9.7,9.7,0,0,0,6.06-4.4,6.36,6.36,0,0,1,5.26-2.89h16.83a10.44,10.44,0,0,0,5.64-1.57c1.07-.69,2.13-2.9,2.85-4.26h.76A66.82,66.82,0,0,0,146,205l-24.73,0a3.63,3.63,0,0,0-3.13,1.62c-1.29,1.81-2,3.06-2,3.06a1.27,1.27,0,0,0-.18.86C116.1,210.88,116.27,211.13,117,211.3Z"/><path d="M100.28,210.38H106s-2.51-.85-1.52-1.69Z"/><path class="cls-4" d="M72.3,211.08l-11.6,0s8.65-.17,7.14-5.67c-1.36-4.95-3-9.52-3.91-11.75a3.16,3.16,0,0,0-2.16-1.81,55.08,55.08,0,0,0-6.18-.63l1.29-.26.17,0,2.49-.09,4.38,0,7.53,19.84A.86.86,0,0,0,72.3,211.08Z"/><path class="cls-4" d="M103.53,216.25l-32.75,0a2.23,2.23,0,0,0-2.06,2s26,1.93,34.67,1.93a2,2,0,0,0,2.1-2.18A1.92,1.92,0,0,0,103.53,216.25Z"/><path class="cls-4" d="M145.39,216.4l-27.64,0a2,2,0,0,0-1.74,1.94s21.94,1.83,29.27,1.83c1.88,0,1.76-2.08,1.76-2.08A1.71,1.71,0,0,0,145.39,216.4Z"/><rect x="68.7" y="217.14" width="35.87" height="3.08" rx="1.54" ry="1.54"/><rect x="116.01" y="217.14" width="33.15" height="3.08" rx="1.54" ry="1.54"/><path class="cls-4" d="M144.92,211.27s-1.78,5.13-7,5.13l1,.42,7.53-.07-.32-4.62-.7-.86Z"/><path d="M145.45,211.27a21.47,21.47,0,0,0,.65,5.87l1.09.66.68-.46-.32-1.55-.24-.7s-.34-1.33-.41-1.75a4.29,4.29,0,0,0-.3-1.36C146.4,211.62,145.45,211.27,145.45,211.27Z"/><path d="M147,199.85l.43-1.81c.11-.5,1.07,1,1.07,1l-.13.89-1,.2Z"/><path d="M308.17,233.87a2.88,2.88,0,0,0,1.62.42,3.35,3.35,0,0,0-2.5,1.54Z"/><path d="M314.42,230.86s.27-.7-1.35-1a7,7,0,0,0,3.36-.3l-.83,1.3Z"/><path class="cls-3" d="M309.21,230.44c-.29-.23-2.09-1.38-1.66.06a2.37,2.37,0,0,0,1.75,1.41c.25,0,.47.18.48.89,0,.26.8,0,1-.78s1.36-1.28,1.2-1.67S309.57,230.71,309.21,230.44Z"/><path class="cls-3" d="M304.45,240.1a33.78,33.78,0,0,0,3-3c.39-.63,1.17-1.66,1.33-2s.82-.45.71,0,.46,1.34-3.62,4.2C305.9,239.28,304.63,240.29,304.45,240.1Z"/><path class="cls-4" d="M213.44,285.3s.18,6.37,5.64,13.76c0,0-6.78-5.5-8.81-10.82,0,0-.11-.26-.06-.36S213.44,285.3,213.44,285.3Z"/><path d="M213.44,285.3a12.39,12.39,0,0,0,1.43,6.1s-1.31-4.6,1.14-8.19Z"/><path class="cls-4" d="M147.19,220.24a10.36,10.36,0,0,0,2.27,2.82l-88.1-.71a3.09,3.09,0,0,1-2.29-1.09s-1-.87-1.58-1.42c1.06,1,3.72,1.66,5.27,1.71s4.14.1,7.7.1c5.73,0,71.73.43,71.73.43s3.14-.26,3.55-1.84Z"/><path class="cls-4" d="M49,215.67a1.75,1.75,0,0,0,1.5,1.85l3.77.41a3.47,3.47,0,0,1,1.13.31,7.77,7.77,0,0,0,0-1.64,10,10,0,0,1,.27-2.49c0-.06-.51,1.64-1.35,2a10.78,10.78,0,0,1-4.09.25C49.68,216.14,49.35,216.08,49,215.67Z"/><path class="cls-4" d="M55.7,211.43a14.27,14.27,0,0,0-5.49,0,19.09,19.09,0,0,1,5.38-.94A5.24,5.24,0,0,1,55.7,211.43Z"/><path class="cls-5" d="M189.82,195.09a37.28,37.28,0,0,1-8.79,2,82.41,82.41,0,0,1-9,.59l-8.93.09a33.47,33.47,0,0,0-4.39.33,4.66,4.66,0,0,0-3.63,2,3.46,3.46,0,0,1,1.33-1.85,7.16,7.16,0,0,1,2.11-1,25,25,0,0,1,4.49-.84c3-.32,6-.38,9-.46s5.95-.09,8.92-.21S186.85,195.52,189.82,195.09Z"/><path class="cls-5" d="M153.25,209.77a14.55,14.55,0,0,0,.87,6,4.28,4.28,0,0,0,1.71,2,5.4,5.4,0,0,0,2.62.63,40.46,40.46,0,0,0,6.13,0,27.92,27.92,0,0,1,6.33,0c-2.09.38-4.09.82-6.16,1.25a25,25,0,0,1-6.4.4,6.71,6.71,0,0,1-3.38-.94,5.41,5.41,0,0,1-2.1-2.87A10.16,10.16,0,0,1,153.25,209.77Z"/><path class="cls-5" d="M49.8,213.06a5.57,5.57,0,0,1,5.07,0,11.08,11.08,0,0,1-2.53.23A11.82,11.82,0,0,1,49.8,213.06Z"/><path class="cls-5" d="M62.41,190a11.87,11.87,0,0,1-6.26,0,10.69,10.69,0,0,1,3.14-.42A10.52,10.52,0,0,1,62.41,190Z"/><path class="cls-5" d="M237,192.08a6.78,6.78,0,0,1-2,1,19.12,19.12,0,0,1-2.16.66,35.61,35.61,0,0,1-4.44.79c-1.49.2-3,.28-4.47.37s-3,.05-4.44.13a19.55,19.55,0,0,0-8.26,1.75,7.18,7.18,0,0,0-2.94,2.84,13.38,13.38,0,0,0-1.31,4.14,10.85,10.85,0,0,1,.57-4.49,7.5,7.5,0,0,1,3-3.61c2.71-1.72,5.87-2.15,8.87-2.31s5.92,0,8.88-.12c1.46-.06,2.93-.13,4.39-.29A15.42,15.42,0,0,0,237,192.08Z"/><path class="cls-5" d="M229.28,220.87a2.72,2.72,0,0,1-.26,2.22,4,4,0,0,1-1.64,1.59,5.14,5.14,0,0,1-2.13.6,7.59,7.59,0,0,1-1.07-.06,4.89,4.89,0,0,1-1.05-.32,7.83,7.83,0,0,1,.94-.5c.3-.14.6-.29.89-.4.56-.29,1.12-.5,1.61-.79A7.09,7.09,0,0,0,229.28,220.87Z"/><path class="cls-5" d="M248.09,205.6a34,34,0,0,1-.33-5.28c0-1.73.1-3.48,0-5.09l0-.94.77.14c.63.12,1.25.26,1.87.42a15.87,15.87,0,0,1,1.85.59,16,16,0,0,1-1.93.27c-.64,0-1.27.07-1.91.08l.73-.8a11.36,11.36,0,0,1,.34,2.74,21.51,21.51,0,0,1-.12,2.67,23.27,23.27,0,0,1-.44,2.63A15,15,0,0,1,248.09,205.6Z"/><path class="cls-5" d="M282.34,198a28.32,28.32,0,0,1,.33,5.59,43.38,43.38,0,0,1-.53,5.57,37.82,37.82,0,0,1-1.32,5.44,25.29,25.29,0,0,1-2.25,5.14c.28-1.86.67-3.65,1-5.46s.65-3.59.93-5.4C281.1,205.23,281.61,201.62,282.34,198Z"/><path class="cls-5" d="M288.05,233.11a3.68,3.68,0,0,1,.72-2,2.49,2.49,0,0,1,.88-.78.76.76,0,0,1,.75,0,.71.71,0,0,1,.24.58l-.22-.16a.9.9,0,0,0-.19,0,.88.88,0,0,0-.23.19c-.17.2-.36.46-.55.72A7.17,7.17,0,0,1,288.05,233.11Z"/><path class="cls-5" d="M299.16,206.38a8.19,8.19,0,0,1,.07-3.81,7.61,7.61,0,0,1,1.87-3.51,6.43,6.43,0,0,1,.79-.68l.88-.55a6.8,6.8,0,0,1,4-.48,8.83,8.83,0,0,1,1.82.6c-.65.12-1.25.12-1.84.22a9.82,9.82,0,0,0-1.68.4,9.1,9.1,0,0,0-1.49.66l-.64.47a4.22,4.22,0,0,0-.58.54,10.26,10.26,0,0,0-1.85,2.76A34,34,0,0,0,299.16,206.38Z"/><path class="cls-5" d="M308.58,220.16s-.67-.37-.41-.54.37.12.73-.1.68.22.3.38Z"/><path class="cls-5" d="M310,231.77c0,.29-1.09-.55-1-.74s.61.26,1,0,.93-.2.58,0S310,231.57,310,231.77Z"/><path class="cls-5" d="M335,205.15c0,2.14-.16,4.25-.31,6.35l-.46,6.27c-.16,2.09-.29,4.17-.32,6.24a20.71,20.71,0,0,0,.15,3.06,5.34,5.34,0,0,0,.38,1.45,1.65,1.65,0,0,0,1,1,1.77,1.77,0,0,1-1.42-.78,5.59,5.59,0,0,1-.78-1.49,14.31,14.31,0,0,1-.66-3.21,36.24,36.24,0,0,1,0-6.42,56.07,56.07,0,0,1,.84-6.32A42.82,42.82,0,0,1,335,205.15Z"/><path class="cls-5" d="M353.83,211.15a10.54,10.54,0,0,1-1.77-.39l.45-.27a20,20,0,0,1-.1,2.79,12.87,12.87,0,0,1-.57,2.77,12.89,12.89,0,0,1-.23-2.82,20,20,0,0,1,.26-2.78L352,210l.36.2A11.22,11.22,0,0,1,353.83,211.15Z"/><path class="cls-5" d="M219.08,294.63s-4.36-7.25,0-10.82,21.55-20.49,24.51-26.17c0,0-11.33,17.23-19.63,25C215.85,290.25,219.08,294.63,219.08,294.63Z"/><path class="cls-5" d="M319.9,241.43a20.87,20.87,0,0,0,2.1,8c1.3,2.42,2.62,5,3.87,7.45s2.48,5,3.68,7.58,2.34,5.11,3.43,7.7l0-.05a16.35,16.35,0,0,0,1,1.45,12.46,12.46,0,0,0,1.18,1.33,5.58,5.58,0,0,0,3.08,1.71,5.34,5.34,0,0,1-3.49-1.23,11.16,11.16,0,0,1-1.42-1.24,14.55,14.55,0,0,1-1.24-1.45h0l0-.06c-1.35-2.46-2.64-4.95-3.92-7.45s-2.49-5-3.68-7.56-2.35-5.07-3.48-7.7A17,17,0,0,1,319.9,241.43Z"/><path class="cls-5" d="M366.62,220.1a2.29,2.29,0,0,1,.59-2,3.74,3.74,0,0,1,1.91-1,7.36,7.36,0,0,1,2.08-.18l1.89.09c1.26.09,2.53.19,3.8.36a27.51,27.51,0,0,1,3.81.74,19.67,19.67,0,0,1-3.86.57,30.91,30.91,0,0,1-3.85,0c-.65-.06-1.29-.11-1.93-.19a9.41,9.41,0,0,0-1.74-.11,3.55,3.55,0,0,0-1.58.39A2.37,2.37,0,0,0,366.62,220.1Z"/><path class="cls-5" d="M364.93,235.27c2.79.07,5.57.22,8.34.39a28.91,28.91,0,0,1,4.16.32,17,17,0,0,1,4.05,1.24l0,.16a17.36,17.36,0,0,1-4.23.27,30.29,30.29,0,0,1-4.11-.65c-2.74-.49-5.48-1-8.21-1.56Z"/><path class="cls-5" d="M403.8,219.71a20.55,20.55,0,0,0-3.38.4,4.56,4.56,0,0,0-2.66,1.3,17,17,0,0,0-1.47,2.89c-.42,1-.81,2.07-1.14,3.15-.7,2.14-1.28,4.34-1.87,6.54s-1.17,4.43-1.89,6.63a49.68,49.68,0,0,1,.6-6.9,44.48,44.48,0,0,1,1.56-6.79,19.38,19.38,0,0,1,3.21-6.36,3.66,3.66,0,0,1,1.75-1,7.61,7.61,0,0,1,1.81-.26A12.62,12.62,0,0,1,403.8,219.71Z"/><path class="cls-5" d="M439.51,222.61a45.37,45.37,0,0,1-5.47,0l-1.35-.09-.68-.06-.3,0h-.3a6.43,6.43,0,0,0-2.33.43,3.84,3.84,0,0,0-1.76,1.3,4.17,4.17,0,0,0-.54,1c-.15.35-.26.84-.41,1.25a42.91,42.91,0,0,1-1.92,5.11,45.11,45.11,0,0,1,.65-5.44,10.76,10.76,0,0,1,.28-1.37,5,5,0,0,1,3.09-3.42,7.51,7.51,0,0,1,3-.44l.38,0a3,3,0,0,1,.38.06l.67.11c.44.07.89.16,1.33.25A45.14,45.14,0,0,1,439.51,222.61Z"/><path d="M296,229c-10.33-9.9-14.45,13.18-15.27,19.18-.26,1.89,2.63,2.7,2.89.8.48-3.47,3.68-24.16,10.25-17.86,1.4,1.33,3.52-.78,2.13-2.12Z"/><path d="M282.17,240a42,42,0,0,0,.26,6.91c.22,1.89,3.22,1.92,3,0a42,42,0,0,1-.26-6.91c.09-1.93-2.91-1.93-3,0Z"/><path d="M232.6,226.81c5.43-3.68,7.6-8.67,8.54-15,.28-1.89-2.61-2.71-2.89-.8-.81,5.46-2.41,10-7.16,13.21-1.59,1.08-.09,3.68,1.51,2.59Z"/><path d="M237.25,184.79c1.16-.12,3.17-.76,4.28-.47.95.26-.09-.28.26.26.26.39.12.56.46,1,1.06,1.27,3.56,1.25,5.06,1.31,1.29,0,1.29-2,0-2-1.07,0-2.92.07-3.58-.93-.31-.47-.12-.93-.65-1.33-1.25-1-4.38,0-5.83.18-1.26.14-1.28,2.14,0,2Z"/><path d="M282.17,257.45c.34-2,1.94-2.38,3.7-2.25,1.29.09,1.28-1.91,0-2A5.48,5.48,0,0,0,282,254a4.54,4.54,0,0,0-1.77,2.88c-.22,1.26,1.71,1.8,1.92.53Z"/><path d="M291.92,253c1.92-1.09,4.76-.36,6.84-.42,2.56-.06,5.11-.35,7.68-.36a1,1,0,0,0,0-2c-3.31,0-6.61.48-9.92.35-2-.08-3.8-.32-5.61.7a1,1,0,0,0,1,1.73Z"/><path d="M310.6,252.29c.6.15,1.48.2,1.73.88a1,1,0,0,0,1.23.7,1,1,0,0,0,.7-1.23A3.21,3.21,0,0,0,313,251a5.91,5.91,0,0,0-1.88-.65,1,1,0,0,0-.53,1.93Z"/></g></svg>